<?xml version="1.0" standalone="no"?>
<!DOCTYPE svg PUBLIC "-//W3C//DTD SVG 1.1//EN" "http://www.w3.org/Graphics/SVG/1.1/DTD/svg11.dtd" >
<svg xmlns="http://www.w3.org/2000/svg" xmlns:xlink="http://www.w3.org/1999/xlink" version="1.1">
<metadata>
Created by FontForge 20161013 at Fri Dec 16 21:28:48 2011
 By ,,,
Copyright (c) Christian Schwartz, 2007. All rights reserved.
</metadata>
<defs>
<font id="BBVAWebLight-Italic" horiz-adv-x="1229" >
  <font-face 
    font-family="BBVA Web Light"
    font-weight="400"
    font-style="italic"
    font-stretch="normal"
    units-per-em="2048"
    panose-1="2 11 3 3 4 0 0 2 0 4"
    ascent="1638"
    descent="-410"
    x-height="1067"
    cap-height="1434"
    bbox="-465 -356 2355 1839"
    underline-thickness="102"
    underline-position="-307"
    slope="-13"
    unicode-range="U+0020-FB02"
  />
<missing-glyph horiz-adv-x="1024" 
 />
    <glyph glyph-name=".notdef" horiz-adv-x="1024" 
 />
    <glyph glyph-name=".null" horiz-adv-x="0" 
 />
    <glyph glyph-name="nonmarkingreturn" horiz-adv-x="614" 
 />
    <glyph glyph-name="space" unicode=" " horiz-adv-x="614" 
 />
    <glyph glyph-name="exclam" unicode="!" horiz-adv-x="440" 
d="M354 1360l19 74h110l-18 -74l-260 -1065h-84zM111 -8q-34 0 -56 22t-22 56q0 32 22 56t56 24t56.5 -24t22.5 -56q0 -34 -22.5 -56t-56.5 -22z" />
    <glyph glyph-name="quotedbl" unicode="&#x22;" horiz-adv-x="446" 
d="M256 1346l20 88h105l-21 -88l-77 -265h-72zM473 1346l21 88h106l-20 -88l-80 -265h-70z" />
    <glyph glyph-name="numbersign" unicode="#" 
d="M383 518h-217l22 98h222l69 256h-217l23 97h221l127 465h76l-127 -465h280l127 465h76l-127 -465h219l-22 -97h-224l-69 -256h219l-23 -98h-223l-141 -518h-76l139 518h-280l-140 -518h-75zM766 616l70 256h-281l-70 -256h281z" />
    <glyph glyph-name="dollar" unicode="$" 
d="M516 -8l-45 -201h-86l47 209q-108 14 -198.5 56t-155.5 104l20 88h49q54 -66 132 -108t174 -56l145 629q-69 25 -125 53t-95.5 65.5t-61 88.5t-21.5 122q0 89 32 163t91.5 126.5t144 81.5t189.5 29h18l29 123h86l-31 -129q87 -13 156 -45.5t131 -92.5l-19 -79h-49
q-49 55 -106 86.5t-131 44.5l-134 -572q70 -26 130.5 -55.5t104.5 -68.5t69.5 -91t25.5 -123q0 -113 -36.5 -197t-101.5 -140t-154 -83.5t-195 -27.5h-29zM928 432q0 51 -18.5 89t-52 67.5t-79.5 52t-100 43.5l-141 -606h10q83 0 153 22t120.5 66t79 110.5t28.5 155.5z
M395 1051q0 -53 17 -91t47.5 -66t72 -48.5t89.5 -38.5l129 549h-2q-78 0 -142.5 -20.5t-111.5 -59.5t-73 -95.5t-26 -129.5z" />
    <glyph glyph-name="percent" unicode="%" horiz-adv-x="1638" 
d="M449 805q58 0 108 28.5t87 77.5t58 115t21 141q0 44 -11.5 81t-34 63.5t-55.5 41.5t-77 15q-59 0 -109 -29t-87 -78.5t-58 -115.5t-21 -141q0 -45 12 -81.5t35 -62.5t56.5 -40.5t75.5 -14.5zM444 731q-61 0 -110.5 19.5t-84.5 55.5t-54 87t-19 115q0 90 30 169t81 138
t119 93t143 34q62 0 112 -19.5t84.5 -55.5t53 -88t18.5 -116q0 -89 -29.5 -167.5t-80 -137.5t-118.5 -93t-145 -34zM1442 1493h102l-1286 -1563h-102zM1155 66q58 0 108.5 28.5t87.5 77.5t58 115t21 141q0 44 -11.5 81t-34 63.5t-56 41.5t-77.5 15q-58 0 -108 -29t-87 -78.5
t-58 -116t-21 -141.5q0 -45 12 -81.5t34.5 -62.5t56 -40t75.5 -14zM1151 -8q-62 0 -111.5 19t-84 55t-53.5 87t-19 115q0 90 30 169t81 138t118.5 93t142.5 34q62 0 112 -19.5t85 -55.5t53.5 -87.5t18.5 -115.5q0 -89 -29.5 -168t-80 -137.5t-118.5 -92.5t-145 -34z" />
    <glyph glyph-name="ampersand" unicode="&#x26;" horiz-adv-x="1307" 
d="M453 -10q-95 0 -170.5 28t-128 77t-80 116t-27.5 145q0 101 37 179.5t97.5 138t138.5 101t159 67.5q-25 49 -39 101t-14 114q0 78 29.5 148t84 122.5t132 83.5t174.5 31q101 0 168 -27.5t116 -75.5l-14 -73h-51q-38 45 -88 67.5t-131 22.5q-72 0 -130.5 -22.5t-99 -62
t-62.5 -93t-22 -115.5q0 -32 4 -62t14 -61.5t27.5 -66t43.5 -74.5l311 -475q75 100 127 223t86 248h92v-37q-38 -134 -103.5 -265t-156.5 -237l139 -211v-45h-92l-119 180q-93 -88 -205.5 -139t-246.5 -51zM465 72q124 0 222.5 46.5t176.5 125.5l-350 530
q-69 -23 -133.5 -56.5t-114 -82.5t-79 -115t-29.5 -153q0 -59 19 -112t57.5 -94t96 -65t134.5 -24z" />
    <glyph glyph-name="quotesingle" unicode="'" horiz-adv-x="240" 
d="M256 1346l20 88h105l-21 -88l-77 -265h-70z" />
    <glyph glyph-name="parenleft" unicode="(" horiz-adv-x="618" 
d="M375 -100q-46 27 -93.5 72.5t-85 113t-60.5 160.5t-21 215q0 160 39.5 318t117.5 297.5t195 253.5t272 188h43l-16 -68q-136 -68 -239 -173.5t-172 -236t-103.5 -278.5t-34.5 -299q-2 -111 17 -193.5t49.5 -142t68 -98.5t72.5 -62l-16 -67h-33z" />
    <glyph glyph-name="parenright" unicode=")" horiz-adv-x="618" 
d="M-66 -33q136 67 239 173t172 236.5t103.5 278.5t34.5 299q1 111 -17.5 193.5t-49 142t-67.5 98.5t-73 62l17 68h33q46 -28 93.5 -73.5t85 -113t60.5 -160.5t21 -215q0 -107 -17.5 -213t-52.5 -207t-87.5 -195t-121.5 -175.5t-156 -149t-190 -116.5h-43z" />
    <glyph glyph-name="asterisk" unicode="*" horiz-adv-x="723" 
d="M565 868l-82 197l-145 -166l-49 -49l-62 65l49 48l164 139l-192 80l-60 30l43 80l60 -28l178 -113l20 215l13 68h94l-14 -76l-52 -213l205 57l66 12l12 -92l-68 -12l-206 -23l110 -178l31 -57l-86 -41z" />
    <glyph glyph-name="plus" unicode="+" 
d="M594 662h-361l21 92h360l91 385h100l-90 -385h358l-20 -92h-359l-88 -386h-100z" />
    <glyph glyph-name="comma" unicode="," horiz-adv-x="614" 
d="M76 -100q49 11 80.5 30.5t31.5 46.5q0 14 -7.5 23.5t-16.5 17.5q-13 11 -21 25t-8 33q0 32 24 53t56 21t56 -23.5t24 -77.5q0 -48 -18.5 -85.5t-50 -64.5t-74.5 -43t-91 -22z" />
    <glyph glyph-name="hyphen" unicode="-" horiz-adv-x="463" 
d="M76 653h364l-20 -88h-365z" />
    <glyph glyph-name="period" unicode="." horiz-adv-x="614" 
d="M211 -8q-34 0 -55 21t-21 55t24 58t58 24t55 -21t21 -55t-24 -58t-58 -24z" />
    <glyph glyph-name="slash" unicode="/" horiz-adv-x="614" 
d="M-127 -74l854 1592h88v-27l-852 -1591h-90v26z" />
    <glyph glyph-name="zero" unicode="0" 
d="M539 -8q-99 0 -178.5 35t-135.5 99.5t-86 154.5t-30 200q0 96 18.5 204.5t55.5 215.5t92.5 205t130 172.5t167.5 119t205 44.5q97 0 174 -38t130.5 -104.5t82 -157.5t27.5 -196q0 -101 -18 -211t-53.5 -216t-89 -201.5t-126 -168t-164 -115t-202.5 -42.5zM217 477
q0 -79 17.5 -151.5t55.5 -127.5t99 -87.5t148 -32.5q96 0 173.5 41.5t138 110t105 158.5t73 186.5t42.5 194t14 181.5q0 77 -16.5 150t-53 130t-95.5 91.5t-144 34.5q-95 0 -173 -41.5t-140 -111t-108 -159.5t-76 -188t-45 -196t-15 -183z" />
    <glyph glyph-name="one" unicode="1" 
d="M801 1313l-404 -217h-45l17 75l493 263h76l-330 -1434h-110z" />
    <glyph glyph-name="two" unicode="2" 
d="M47 94l533 418q51 40 104.5 83t103.5 88t94.5 93.5t77.5 101t52.5 109.5t19.5 119q0 63 -21 109.5t-59.5 76.5t-93 45t-121.5 15q-58 0 -110.5 -11.5t-99 -30.5t-86.5 -44t-72 -52h-52l19 91q39 29 86.5 54t100.5 43.5t111 29t118 10.5q81 0 152 -19.5t123.5 -60.5
t83 -103.5t30.5 -148.5q0 -101 -44 -190.5t-114 -170t-157.5 -153t-174.5 -139.5l-467 -365h762l-20 -92h-899z" />
    <glyph glyph-name="three" unicode="3" 
d="M535 -8q-143 0 -258.5 44.5t-192.5 137.5l16 78h54q31 -44 72 -76.5t89.5 -53.5t103 -31.5t111.5 -10.5q86 -1 156.5 23.5t120.5 70.5t77 113t27 151q0 124 -78 193t-237 69h-104l20 91h117q81 0 151.5 18t122.5 57t81.5 99.5t29.5 144.5q0 64 -22.5 110t-61 75.5
t-91 43.5t-112.5 15q-106 2 -190 -29.5t-144 -79.5h-51l16 84q72 50 165.5 81.5t213.5 31.5q75 0 143.5 -18.5t121.5 -58.5t84.5 -102t31.5 -149q0 -75 -22.5 -137.5t-65.5 -110t-104 -79t-138 -44.5v-4q51 -15 93.5 -42.5t72.5 -66.5t47 -88.5t17 -107.5q0 -98 -34.5 -179
t-97.5 -139.5t-152.5 -91t-198.5 -32.5z" />
    <glyph glyph-name="four" unicode="4" 
d="M778 371h-692l23 100l913 963h108l-225 -977h189l-21 -86h-186l-86 -371h-109zM797 457l186 813h-4l-764 -809v-4h582z" />
    <glyph glyph-name="five" unicode="5" 
d="M475 -8q-130 0 -229.5 35.5t-167.5 101.5l14 80h51q56 -68 140 -99.5t190 -31.5q102 0 190 34.5t152.5 98t101.5 152.5t37 198q0 128 -73 201.5t-213 73.5q-61 0 -113.5 -13.5t-96.5 -34.5t-79.5 -48t-61.5 -54h-81l170 748h774l-21 -95h-680l-123 -538h4q23 21 56 43
t75.5 40t93.5 29t111 11q86 0 155 -26t117 -73t73.5 -114t25.5 -148q0 -125 -45.5 -230t-125 -181t-187.5 -118t-234 -42z" />
    <glyph glyph-name="six" unicode="6" 
d="M588 -8q-108 0 -191.5 35t-141.5 100t-88 158t-30 209q0 100 20.5 204.5t60 204t98.5 188.5t137 160q95 88 211.5 139.5t265.5 51.5q84 0 162.5 -18.5t138.5 -65.5l-19 -84h-47q-22 22 -50.5 37.5t-60 25.5t-64.5 14.5t-64 4.5q-66 0 -124.5 -12.5t-110 -35.5
t-97.5 -55.5t-86 -72.5q-49 -48 -88.5 -104.5t-69.5 -119.5t-51.5 -130.5t-34.5 -135.5q91 82 204 132t247 50q85 0 157 -23t124.5 -68t82 -112t29.5 -155q0 -111 -40.5 -206.5t-110.5 -165.5t-165 -110t-204 -40zM684 786q-62 0 -121 -14.5t-114 -39.5t-105 -59.5
t-92 -74.5q-6 -56 -6 -106q0 -92 19 -168t60.5 -130.5t107 -85t157.5 -30.5q87 0 162 31.5t130 88.5t86 136.5t31 175.5q0 138 -83.5 207t-231.5 69z" />
    <glyph glyph-name="seven" unicode="7" 
d="M246 55l901 1280v4h-842l23 95h940l-25 -105l-903 -1329h-94v55z" />
    <glyph glyph-name="eight" unicode="8" 
d="M549 -8q-82 0 -165.5 20t-150.5 64t-109 114.5t-42 171.5q0 85 32 155t88 123t133 87.5t167 48.5v4q-91 37 -145 105t-54 170q0 88 37.5 159.5t101.5 122t148.5 78t179.5 27.5q81 0 154.5 -21t129 -62.5t88 -103.5t32.5 -145q0 -78 -25 -138.5t-69 -104t-104 -71
t-130 -40.5v-4q122 -39 183 -123.5t61 -200.5q0 -102 -41.5 -183t-114 -137t-171.5 -86t-214 -30zM551 76q92 0 171 23t136.5 68t90 111t32.5 152q0 79 -30.5 134.5t-80.5 91t-114.5 51.5t-132.5 16q-97 0 -176.5 -27t-136.5 -75t-88.5 -112.5t-31.5 -139.5
q0 -78 28.5 -133.5t77.5 -91t114.5 -52t140.5 -16.5zM715 809q79 0 144 19t111 56.5t71.5 93t25.5 128.5q0 67 -23.5 114.5t-64 78t-95 45t-116.5 14.5q-74 0 -139 -20t-114 -58.5t-77 -95.5t-28 -131q0 -67 26.5 -113.5t69 -75.5t97.5 -42t112 -13z" />
    <glyph glyph-name="nine" unicode="9" 
d="M389 -10q-96 0 -179.5 21.5t-143.5 72.5l16 82h47q45 -47 110 -67.5t152 -20.5q125 0 223 40t177 109q51 46 91.5 103.5t71.5 123t52 137.5t34 148q-43 -37 -92.5 -69t-105.5 -56t-118.5 -37.5t-129.5 -13.5q-85 0 -157.5 23t-125 68t-82.5 111.5t-30 154.5
q0 109 40.5 204t111 165.5t165.5 111.5t205 41q109 0 192.5 -35.5t139.5 -99t85 -150.5t29 -190q0 -119 -20 -235.5t-60 -222t-101 -196.5t-142 -159q-91 -78 -203 -121t-252 -43zM625 647q60 0 118.5 14.5t113.5 40t104.5 60t91.5 74.5q3 34 5.5 68t2.5 69q0 81 -20 151
t-61.5 121.5t-106 81t-154.5 29.5q-89 0 -164.5 -31.5t-130.5 -88.5t-86 -136.5t-31 -175.5q0 -139 84.5 -208t233.5 -69z" />
    <glyph glyph-name="colon" unicode=":" horiz-adv-x="614" 
d="M211 -8q-34 0 -55 21t-21 55t24 58t58 24t55 -21t21 -55t-24 -58t-58 -24zM362 629q-34 0 -54.5 20.5t-20.5 55.5q0 34 24 57.5t58 23.5t54.5 -20.5t20.5 -54.5t-23.5 -58t-58.5 -24z" />
    <glyph glyph-name="semicolon" unicode=";" horiz-adv-x="614" 
d="M76 -100q49 11 80.5 30.5t31.5 46.5q0 14 -7.5 23.5t-16.5 17.5q-13 11 -21 25t-8 33q0 32 24 53t56 21t56 -23.5t24 -77.5q0 -48 -18.5 -85.5t-50 -64.5t-74.5 -43t-91 -22zM362 629q-34 0 -54.5 20.5t-20.5 55.5q0 34 24 57.5t58 23.5t54.5 -20.5t20.5 -54.5t-23.5 -58
t-58.5 -24z" />
    <glyph glyph-name="less" unicode="&#x3c;" 
d="M246 662l16 75l842 379h35l-19 -86l-755 -340v-2l589 -379l-18 -76h-35z" />
    <glyph glyph-name="equal" unicode="=" 
d="M184 518h854l-20 -90h-854zM262 860h854l-20 -90h-854z" />
    <glyph glyph-name="greater" unicode="&#x3e;" 
d="M1049 688l-17 -76l-842 -379h-34l18 86l756 340v3l-590 378l18 76h35z" />
    <glyph glyph-name="question" unicode="?" horiz-adv-x="877" 
d="M231 295q5 89 24.5 154.5t55 118t86 98.5t117.5 96q47 35 102 70.5t102.5 80t79 103.5t31.5 141q0 57 -20.5 95t-54 61.5t-76.5 33t-88 9.5q-60 0 -107 -8.5t-84.5 -22.5t-68 -34t-56.5 -42h-49l19 90q29 21 64.5 39.5t79 33t96 22.5t114.5 8q64 0 125.5 -16t109.5 -50.5
t77.5 -88.5t29.5 -130q0 -86 -29.5 -150t-77 -115t-107 -93.5t-120.5 -85.5q-63 -43 -113 -82t-86.5 -85t-58.5 -106t-29 -145h-88zM240 -8q-34 0 -56 22t-22 56q0 32 22 56t56 24t56.5 -24t22.5 -56q0 -34 -22.5 -56t-56.5 -22z" />
    <glyph glyph-name="at" unicode="@" horiz-adv-x="1776" 
d="M901 -244q-105 0 -204.5 18t-188.5 56.5t-164 98.5t-129 143t-84.5 190t-30.5 240q0 137 36 253t98 210t146 165t180 119t199 72.5t204 24.5q156 0 294 -43t241 -126.5t162.5 -207t59.5 -283.5q0 -142 -40 -244t-104 -167.5t-144 -96.5t-160 -31q-58 0 -97 15t-62 39.5
t-32.5 57t-7.5 67.5q-29 -33 -65 -65.5t-78 -59t-90 -42.5t-103 -16q-51 0 -93.5 16.5t-73.5 49.5t-48.5 82t-17.5 115q0 64 16.5 129.5t47 126.5t74.5 115t98 93.5t118 62.5t135 23q41 0 73 -6t57.5 -15.5t45 -22.5t35.5 -27q13 32 26.5 48.5t41.5 16.5h33l-129 -542
q-11 -42 -11.5 -76.5t12.5 -58.5t40 -37t71 -13q61 0 122 25t110 80.5t79.5 143.5t30.5 214q0 141 -49 249.5t-137.5 182.5t-211 112t-269.5 38q-92 0 -185 -21.5t-178.5 -64.5t-160 -107t-129 -149.5t-86 -191.5t-31.5 -232q0 -180 55.5 -307t151.5 -207.5t225 -118
t276 -37.5q78 0 152.5 10t141.5 29t124.5 46.5t101.5 62.5h39l-12 -76q-45 -32 -105 -59.5t-130.5 -47t-149 -30.5t-162.5 -11zM752 221q53 0 98 18t85 47t76.5 65.5t71.5 74.5l93 393q-32 25 -73 41.5t-108 16.5q-55 0 -105.5 -18.5t-94.5 -51.5t-80.5 -78t-62.5 -97.5
t-40 -110t-14 -115.5q0 -49 12 -84t33 -57.5t49 -33t60 -10.5z" />
    <glyph glyph-name="A" unicode="A" horiz-adv-x="1262" 
d="M-41 43l817 1391h123l180 -1391v-43h-100l-57 449h-619l-262 -449h-82v43zM354 539h555l-98 774h-4z" />
    <glyph glyph-name="B" unicode="B" horiz-adv-x="1206" 
d="M397 1434h371q85 0 155 -19.5t120.5 -59t78 -99t27.5 -138.5q0 -81 -25 -142.5t-69.5 -105.5t-105 -72.5t-132.5 -43.5v-4q59 -11 108.5 -35t85.5 -62.5t56 -92.5t20 -124q0 -114 -46 -196t-124.5 -135.5t-182.5 -79t-220 -25.5h-446zM520 88q94 0 177.5 20t145.5 62.5
t98 109t36 160.5q0 136 -89 202.5t-249 66.5h-301l-143 -621h325zM645 797q80 0 151.5 18t125.5 56t86 97t32 142q0 61 -20.5 105.5t-57 73.5t-87 43t-111.5 14h-279l-129 -549h289z" />
    <glyph glyph-name="C" unicode="C" horiz-adv-x="1280" 
d="M676 -8q-127 0 -228.5 36.5t-173 107t-109.5 174.5t-38 239q0 107 24 215t71 207.5t116.5 185.5t160.5 149t203 99.5t244 36.5q69 0 124.5 -8t100.5 -22.5t81.5 -35t68.5 -45.5l-23 -86h-47q-25 26 -54.5 46.5t-67 34.5t-84.5 21t-107 7q-115 0 -212 -33t-174.5 -90.5
t-136.5 -135t-98 -167t-59 -186.5t-20 -193q0 -112 29 -199.5t85 -147.5t138.5 -91t189.5 -31q131 0 229.5 38t169.5 97h58l-23 -90q-81 -63 -189.5 -98t-248.5 -35z" />
    <glyph glyph-name="D" unicode="D" horiz-adv-x="1397" 
d="M561 88q111 0 205 31t169.5 86t132.5 130t95.5 163.5t58 185.5t19.5 197q0 101 -27 186.5t-82.5 147.5t-140 96.5t-200.5 34.5h-308l-288 -1258h366zM397 1434h398q133 0 236.5 -38.5t174.5 -110t108.5 -174t37.5 -230.5q0 -113 -24 -222.5t-70 -207.5t-113.5 -180.5
t-155.5 -142.5t-195 -94t-231 -34h-495z" />
    <glyph glyph-name="E" unicode="E" horiz-adv-x="1141" 
d="M397 1434h834l-23 -91h-723l-131 -559h557l-18 -88h-557l-139 -608h768l-21 -88h-876z" />
    <glyph glyph-name="F" unicode="F" horiz-adv-x="1106" 
d="M397 1434h838l-23 -91h-727l-137 -598h551l-20 -88h-551l-152 -657h-108z" />
    <glyph glyph-name="G" unicode="G" horiz-adv-x="1366" 
d="M684 -8q-116 0 -217.5 31t-177 97t-119 170t-43.5 251q0 106 23 214t68.5 208t113 187.5t155.5 152t196.5 102t236.5 37.5q137 0 243.5 -31.5t177.5 -99.5l-18 -82h-53q-59 66 -151.5 95.5t-207.5 29.5q-111 0 -203.5 -34t-167.5 -93t-132 -138.5t-95 -170t-57.5 -187.5
t-19.5 -192q0 -119 32 -205.5t91 -142.5t143 -83.5t188 -27.5q64 0 116 6.5t94 17.5t74.5 24.5t57.5 27.5l103 458h-306l21 88h414l-140 -610q-33 -18 -75.5 -36t-96.5 -32.5t-120.5 -23t-147.5 -8.5z" />
    <glyph glyph-name="H" unicode="H" horiz-adv-x="1407" 
d="M397 1434h109l-150 -650h818l149 650h109l-330 -1434h-109l160 694h-817l-160 -694h-108z" />
    <glyph glyph-name="I" unicode="I" horiz-adv-x="487" 
d="M401 1434h109l-330 -1434h-108z" />
    <glyph glyph-name="J" unicode="J" horiz-adv-x="848" 
d="M217 -10q-102 0 -170 25t-108 59l18 82h45q12 -15 30 -29.5t44.5 -25t62 -17t80.5 -6.5q66 0 115.5 15.5t85 46t59 75.5t37.5 104l256 1115h109l-263 -1135q-17 -73 -48 -130.5t-80 -97t-116.5 -60.5t-156.5 -21z" />
    <glyph glyph-name="K" unicode="K" horiz-adv-x="1264" 
d="M397 1434h109l-189 -816l924 816h90v-39l-629 -555l375 -799v-41h-98l-358 770l-334 -289l-111 -481h-108z" />
    <glyph glyph-name="L" unicode="L" horiz-adv-x="1112" 
d="M397 1434h109l-309 -1346h735l-21 -88h-843z" />
    <glyph glyph-name="M" unicode="M" horiz-adv-x="1653" 
d="M397 1434h168l176 -1272h2l754 1272h180l-329 -1434h-109l303 1321h-10l-789 -1321h-77l-183 1321h-8l-305 -1321h-102z" />
    <glyph glyph-name="N" unicode="N" horiz-adv-x="1397" 
d="M397 1434h135l498 -1256h4l289 1256h100l-329 -1434h-103l-518 1309h-4l-301 -1309h-100z" />
    <glyph glyph-name="O" unicode="O" horiz-adv-x="1466" 
d="M676 78q100 0 186 33t156.5 90t125.5 134.5t92.5 166.5t57 185.5t19.5 191.5q0 101 -25.5 188.5t-78.5 151.5t-136.5 100.5t-198.5 36.5q-98 0 -183.5 -32.5t-156.5 -90t-126.5 -134.5t-93.5 -165.5t-58 -185t-20 -191.5q0 -104 26 -192t80 -152t137 -99.5t197 -35.5z
M672 -8q-131 0 -232.5 41t-171 115.5t-105.5 179t-36 231.5q0 108 24 216t69 206t110.5 182.5t149 146t183.5 97t214 35.5q131 0 232.5 -40.5t170.5 -114.5t105 -177.5t36 -230.5q0 -110 -23.5 -218.5t-68.5 -207t-110 -183t-148 -146.5t-183.5 -97t-215.5 -35z" />
    <glyph glyph-name="P" unicode="P" horiz-adv-x="1182" 
d="M397 1434h351q102 0 183 -20t137 -62t86 -107t30 -155q0 -132 -44 -225t-123 -152t-187.5 -86t-237.5 -27h-279l-137 -600h-108zM598 686q105 0 192.5 20.5t151.5 68t99.5 125.5t35.5 194q0 70 -23.5 117.5t-67.5 76.5t-106.5 42t-140.5 13h-254l-151 -657h264z" />
    <glyph glyph-name="Q" unicode="Q" horiz-adv-x="1466" 
d="M563 -18q-436 121 -436 577q0 108 24 216t69 206t110.5 182.5t149 146t183.5 97t214 35.5q131 0 232.5 -40.5t170.5 -114.5t105 -177.5t36 -230.5q0 -105 -21 -208t-61.5 -196.5t-98 -174.5t-130 -142t-159.5 -99.5t-185 -46.5v-4l491 -106l-20 -88h-74zM676 78
q100 0 185.5 33t156 90t124.5 134.5t91.5 166.5t56.5 185.5t19 191.5q0 101 -24.5 188.5t-77.5 151.5t-135.5 100.5t-197.5 36.5q-98 0 -183.5 -32.5t-156 -90t-126 -134.5t-93 -165.5t-57.5 -185t-20 -191.5q0 -104 26 -192t79.5 -152t136 -99.5t196.5 -35.5z" />
    <glyph glyph-name="R" unicode="R" horiz-adv-x="1233" 
d="M698 653q-20 -2 -41 -2h-41h-288l-152 -651h-108l329 1434h363q98 0 174.5 -21t129 -62t80 -103t27.5 -144q0 -95 -26 -168.5t-74 -127.5t-116.5 -88.5t-153.5 -51.5l241 -627v-41h-96zM614 737q105 0 188 19.5t141 63.5t89 114.5t31 173.5q0 63 -21 107.5t-61 73
t-98 41.5t-131 13h-267l-139 -606h268z" />
    <glyph glyph-name="S" unicode="S" horiz-adv-x="1063" 
d="M461 -8q-72 0 -139 12t-127 33.5t-111.5 52.5t-91.5 70l20 88h49q69 -82 173 -125t229 -43q83 0 152.5 21.5t120 65.5t78.5 110t28 155q0 58 -22 98.5t-62 70.5t-94.5 53t-118.5 46q-75 27 -137 55t-105.5 66.5t-67.5 91t-24 129.5q0 89 33.5 163t94 126.5t144.5 81.5
t185 29q125 0 222 -37t175 -115l-18 -80h-50q-62 72 -143 108t-190 36q-72 0 -136 -20t-112 -58.5t-75.5 -95t-27.5 -129.5q0 -62 22.5 -102.5t61.5 -69.5t91.5 -50t113.5 -43q73 -26 136.5 -55t110 -68.5t73 -93.5t26.5 -129q0 -113 -36.5 -197t-101.5 -140t-154 -83.5
t-195 -27.5z" />
    <glyph glyph-name="T" unicode="T" horiz-adv-x="1139" 
d="M707 1346h-461l20 88h1028l-20 -88h-459l-311 -1346h-109z" />
    <glyph glyph-name="U" unicode="U" horiz-adv-x="1391" 
d="M647 -8q-131 0 -232 31.5t-163.5 97.5t-83 166.5t11.5 238.5l209 908h109l-211 -918q-26 -111 -13.5 -192.5t59.5 -135t127 -79.5t189 -27q82 0 152 16t125.5 55.5t96 106.5t64.5 168l232 1006h100l-233 -1014q-27 -116 -75.5 -197.5t-117 -132.5t-155.5 -74.5
t-191 -23.5z" />
    <glyph glyph-name="V" unicode="V" horiz-adv-x="1235" 
d="M268 1391v43h101l170 -1291h4l741 1291h86v-43l-807 -1391h-108z" />
    <glyph glyph-name="W" unicode="W" horiz-adv-x="1825" 
d="M274 1395v39h105l45 -1268h6l643 1268h96l74 -1268h6l609 1268h96v-39l-680 -1395h-121l-74 1243h-2l-626 -1243h-119z" />
    <glyph glyph-name="X" unicode="X" horiz-adv-x="1237" 
d="M-18 43l614 707l-274 641v43h96l264 -625l537 625h86v-43l-568 -656l297 -692v-43h-96l-289 676l-581 -676h-86v43z" />
    <glyph glyph-name="Y" unicode="Y" horiz-adv-x="1130" 
d="M541 604l-281 787v43h98l260 -732h3l567 732h86v-43l-625 -795l-137 -596h-111z" />
    <glyph glyph-name="Z" unicode="Z" horiz-adv-x="1190" 
d="M0 92l1151 1249v5h-809l20 88h938l-22 -97l-1151 -1247v-4h840l-19 -86h-971z" />
    <glyph glyph-name="bracketleft" unicode="[" horiz-adv-x="598" 
d="M406 1518h356l-21 -82h-254l-335 -1454h254l-19 -82h-356z" />
    <glyph glyph-name="backslash" unicode="\" horiz-adv-x="639" 
d="M227 1491v27h92l187 -1592v-26h-92z" />
    <glyph glyph-name="bracketright" unicode="]" horiz-adv-x="598" 
d="M-55 -18h254l336 1454h-254l18 82h356l-374 -1618h-357z" />
    <glyph glyph-name="asciicircum" unicode="^" horiz-adv-x="801" 
d="M162 991l401 443h86l197 -443v-33h-82l-172 381h-2l-350 -381h-78v33z" />
    <glyph glyph-name="underscore" unicode="_" horiz-adv-x="670" 
d="M-182 -260h678l-19 -72h-678z" />
    <glyph glyph-name="grave" unicode="`" horiz-adv-x="844" 
d="M399 1393v41h97l127 -230v-30h-64z" />
    <glyph glyph-name="a" unicode="a" horiz-adv-x="981" 
d="M694 0q-15 0 -27.5 4.5t-20 17.5t-8.5 35t7 58l6 28q-31 -32 -67.5 -60t-78.5 -48t-89.5 -31.5t-100.5 -11.5q-66 0 -120 17.5t-92 52t-59 84t-21 114.5q0 86 33.5 151.5t94 110t145.5 67.5t189 23q82 0 145.5 -14.5t117.5 -34.5l34 148q18 78 8.5 132.5t-39 88.5
t-76 49.5t-104.5 15.5q-56 0 -102.5 -6.5t-85.5 -17.5t-72 -26.5t-61 -33.5h-41l18 84q33 17 69 32t78 26t92 17.5t112 6.5q80 0 146 -21.5t109 -67t58 -117t-8 -171.5l-162 -702h-27zM332 68q54 0 102 13.5t90 37.5t79.5 57.5t72.5 73.5l55 242q-51 20 -111 33.5t-133 13.5
q-85 0 -153 -17.5t-115 -52.5t-72.5 -86.5t-25.5 -118.5q0 -97 57 -146.5t154 -49.5z" />
    <glyph glyph-name="b" unicode="b" horiz-adv-x="1139" 
d="M356 1434h52q13 0 21.5 -4t12.5 -14t3 -27.5t-7 -45.5l-110 -481q39 40 86.5 79t102.5 69.5t116.5 49.5t128.5 19q63 0 118 -20t96.5 -63.5t65 -111t23.5 -161.5q0 -96 -18.5 -187.5t-53 -172.5t-85 -149t-114.5 -117.5t-141.5 -77t-165.5 -27.5q-67 0 -119 12t-92 31
t-69.5 42t-50.5 46q-35 -123 -103 -123h-26zM739 995q-67 0 -126 -20t-112.5 -53t-102.5 -75t-95 -87l-127 -551q21 -25 48 -49.5t63 -44t82 -31.5t104 -12q117 0 208 54t153.5 144t94.5 206t32 241q0 75 -17 128t-46.5 86.5t-70 48.5t-88.5 15z" />
    <glyph glyph-name="c" unicode="c" horiz-adv-x="987" 
d="M469 -8q-100 0 -174.5 31.5t-124 87t-74 132t-24.5 167.5q0 90 20.5 174.5t58.5 159t92.5 136t122.5 106t148 69t170 24.5q61 0 110 -10t86.5 -26t64 -36.5t44.5 -41.5l-18 -74h-49q-12 19 -31 38t-48 34t-67.5 24.5t-89.5 9.5q-117 0 -211 -48.5t-160.5 -129.5
t-102.5 -187t-36 -220q0 -76 18 -138.5t54.5 -106.5t93 -68.5t133.5 -24.5q64 0 114 10.5t88.5 27t68 36.5t53.5 38h49l-19 -77q-24 -19 -57.5 -39.5t-78 -38t-100 -28.5t-124.5 -11z" />
    <glyph glyph-name="d" unicode="d" horiz-adv-x="1145" 
d="M844 0q-45 0 -58 28t-2 74l23 101q-42 -44 -89.5 -82.5t-100.5 -67t-112 -45t-124 -16.5q-63 0 -119 20t-97.5 63.5t-66 111.5t-24.5 165q0 90 20 179t57 170t90.5 150t121 119.5t147.5 79.5t170 29q61 0 108 -11t83 -29t62.5 -41t47.5 -46l111 482h34q22 0 35 -3.5
t18 -13t3.5 -27.5t-8.5 -47l-310 -1343h-20zM410 72q63 0 120 19.5t108.5 52.5t99.5 75.5t93 87.5l130 561q-20 25 -44.5 48.5t-56.5 42t-73.5 29.5t-96.5 11q-121 0 -216 -56t-161 -147.5t-100.5 -207.5t-34.5 -236q0 -76 16.5 -129t46.5 -86.5t73 -49t96 -15.5z" />
    <glyph glyph-name="e" unicode="e" horiz-adv-x="1028" 
d="M473 -8q-100 0 -175 30.5t-125.5 85.5t-75.5 131t-25 167q0 132 42.5 253.5t118.5 215t182 149t234 55.5q84 -1 146.5 -24.5t104 -67t62.5 -105.5t21 -139q0 -51 -9 -105.5t-22 -107.5h-768q-6 -31 -8 -62.5t-2 -61.5q0 -77 18 -138t55.5 -104t95.5 -65.5t138 -22.5
q61 0 112.5 9.5t93 25.5t74 37.5t56.5 44.5h49l-22 -87q-24 -18 -59 -38.5t-81.5 -37t-104 -27.5t-126.5 -11zM645 1001q-82 0 -153 -30.5t-128 -83.5t-98.5 -124.5t-64.5 -154.5h669q10 35 14.5 69.5t4.5 65.5q0 132 -63 195t-181 63z" />
    <glyph glyph-name="f" unicode="f" horiz-adv-x="578" 
d="M287 989h-140l19 78h139l27 121q16 69 43.5 117t65 78t84 43.5t100.5 13.5q43 0 77 -4.5t54 -12.5l-15 -67h-98q-38 0 -71 -8t-59 -27.5t-45.5 -52t-31.5 -82.5l-26 -119h249l-18 -78h-252l-225 -989h-103z" />
    <glyph glyph-name="g" unicode="g" horiz-adv-x="1130" 
d="M362 -340q-63 0 -116.5 8.5t-97.5 22t-79.5 31.5t-60.5 36l19 80h43q38 -42 114.5 -69t180.5 -27q75 0 139.5 13.5t116 46.5t88 87.5t55.5 137.5l45 200q-40 -41 -88 -80.5t-103 -70.5t-116 -49.5t-127 -18.5q-62 0 -117.5 19.5t-96.5 62t-65 109t-24 159.5q0 89 19 177
t55.5 168.5t89.5 149t120 119t148 79t174 28.5q57 0 102.5 -11t81.5 -29t64.5 -41t50.5 -46q14 53 38 84t62 31h31l-242 -1042q-24 -105 -69.5 -175t-110 -112t-146.5 -60t-178 -18zM403 88q64 0 122 21.5t111.5 56t103 78t94.5 88.5l122 538q-20 22 -45 45t-57 42t-73 30.5
t-93 11.5q-82 0 -151.5 -26t-126.5 -71t-100.5 -106.5t-73 -132.5t-45 -149t-15.5 -156q0 -74 16 -125t46 -83.5t72 -47t93 -14.5z" />
    <glyph glyph-name="h" unicode="h" horiz-adv-x="1116" 
d="M356 1434h52q13 0 21.5 -4t12.5 -14t3 -27.5t-7 -45.5l-110 -479q54 43 112.5 82t121.5 68.5t129.5 47t135.5 17.5q58 0 103 -19.5t72.5 -59t34.5 -99.5t-11 -141l-176 -760h-51q-29 0 -37 13t0 48l160 695q15 63 12 108t-21 73.5t-50 42t-75 13.5q-57 0 -117 -17
t-121 -47.5t-122.5 -72.5t-122.5 -92l-176 -764h-102z" />
    <glyph glyph-name="i" unicode="i" horiz-adv-x="414" 
d="M279 1067h32q19 0 31.5 -3.5t18 -14.5t4.5 -31t-9 -53l-221 -965h-102zM383 1231q-29 0 -49.5 20t-20.5 49q0 28 20.5 49t49.5 21t49.5 -21t20.5 -49q0 -29 -20.5 -49t-49.5 -20z" />
    <glyph glyph-name="j" unicode="j" horiz-adv-x="412" 
d="M-139 -336q-29 0 -48.5 2.5t-37.5 7.5l14 68h47q72 0 112.5 32.5t55.5 100.5l275 1192h32q21 0 33.5 -4t17.5 -15.5t3 -31.5t-9 -51l-252 -1100q-23 -99 -82 -150t-161 -51zM383 1231q-29 0 -49.5 20t-20.5 49q0 28 20.5 49t49.5 21t49.5 -21t20.5 -49q0 -29 -20.5 -49
t-49.5 -20z" />
    <glyph glyph-name="k" unicode="k" horiz-adv-x="954" 
d="M356 1434h52q13 0 21.5 -4t12.5 -14t3 -27.5t-7 -45.5l-202 -878l663 602h86v-37l-469 -422l295 -571v-37h-90l-281 541l-235 -209l-76 -332h-102z" />
    <glyph glyph-name="l" unicode="l" horiz-adv-x="416" 
d="M360 1434h52q13 0 21.5 -4t12.5 -14t3 -27.5t-7 -45.5l-309 -1343h-102z" />
    <glyph glyph-name="m" unicode="m" horiz-adv-x="1724" 
d="M272 1067h31q42 0 51 -28t-4 -81l-20 -88q49 41 103 78.5t111 66.5t116 46.5t118 17.5q90 0 146.5 -52t58.5 -155q51 42 107 80t114 66t118 44.5t120 16.5q56 0 99.5 -20t69.5 -59.5t32.5 -99.5t-11.5 -140l-176 -760h-51q-29 0 -37 13t0 48l160 695q15 62 12.5 107
t-19.5 74t-47.5 42.5t-70.5 13.5q-96 0 -204.5 -58t-223.5 -155l-4 -20l-176 -760h-103l172 756q15 63 12.5 108t-19.5 73.5t-47 42t-71 13.5q-48 0 -100 -16t-106 -45.5t-111 -70t-115 -89.5l-178 -772h-102z" />
    <glyph glyph-name="n" unicode="n" horiz-adv-x="1116" 
d="M272 1067h31q42 0 51 -28t-4 -81l-22 -94q54 43 113 82t122 68.5t129.5 47t134.5 17.5q58 0 103 -19.5t72.5 -59t34.5 -99.5t-11 -141l-176 -760h-51q-29 0 -37 13t0 48l160 695q15 63 12 108t-21 73.5t-50 42t-75 13.5q-57 0 -117 -17t-121 -47.5t-122.5 -72.5
t-122.5 -92l-176 -764h-102z" />
    <glyph glyph-name="o" unicode="o" horiz-adv-x="1137" 
d="M489 72q108 0 196 49t149.5 131.5t95 189t33.5 222.5q0 164 -82 249.5t-232 85.5q-106 0 -193.5 -47t-150 -127.5t-97 -187t-34.5 -225.5q0 -170 83 -255t232 -85zM487 -8q-98 0 -175 28.5t-130 82.5t-81.5 132t-28.5 177q0 91 19.5 176t56 159t88 135t116 105t140 68
t159.5 24q97 0 173.5 -29t130 -83.5t82 -131.5t28.5 -173q0 -136 -42 -258t-118.5 -213.5t-183 -145t-234.5 -53.5z" />
    <glyph glyph-name="p" unicode="p" horiz-adv-x="1137" 
d="M272 1067h31q42 0 51 -28t-4 -81l-22 -94q43 44 92 83t104 68.5t115.5 46.5t126.5 17q61 0 115.5 -20.5t95.5 -64t64.5 -111.5t23.5 -164q0 -95 -18 -185t-52 -170t-84.5 -147.5t-115 -116t-143.5 -75.5t-171 -27q-66 0 -117 11.5t-90 30t-67 41t-49 44.5l-105 -457h-102
zM731 995q-62 0 -119.5 -19.5t-110.5 -52t-102 -74t-94 -85.5l-127 -553q19 -25 44 -48.5t59.5 -42t81 -29.5t108.5 -11q121 0 212.5 53.5t153 142t93 203.5t31.5 238q0 80 -18 133.5t-49.5 85.5t-73 45.5t-89.5 13.5z" />
    <glyph glyph-name="q" unicode="q" horiz-adv-x="1145" 
d="M809 213q-38 -41 -85 -79.5t-101 -68.5t-114.5 -48.5t-127.5 -18.5q-63 0 -119 20t-97.5 62.5t-66 109t-24.5 160.5q0 92 19.5 182t57 171t91 150t121 119t148 78.5t171.5 28.5q59 0 105 -11t82 -28t63.5 -39.5t48.5 -44.5q17 60 41 85.5t65 25.5h25l-324 -1399h-104z
M403 80q66 0 124.5 20t111.5 53.5t101.5 76.5t93.5 89l127 553q-20 22 -43 45t-54.5 41t-74.5 29.5t-101 11.5q-80 0 -148.5 -26t-125.5 -71t-101 -106.5t-74 -133t-45.5 -150t-15.5 -156.5q0 -77 16.5 -129.5t46.5 -85t71.5 -47t90.5 -14.5z" />
    <glyph glyph-name="r" unicode="r" horiz-adv-x="696" 
d="M272 1067h31q42 0 51 -28t-4 -81l-22 -96q37 44 81 82.5t92 67.5t100 46t106 17q20 0 32 -2t15 -4l-17 -84q-6 0 -12 1q-5 0 -12.5 0.5t-14.5 0.5q-58 0 -111 -18.5t-102.5 -51t-95 -76t-88.5 -93.5l-172 -748h-102z" />
    <glyph glyph-name="s" unicode="s" horiz-adv-x="834" 
d="M307 -8q-64 0 -117 11t-95.5 28t-74.5 38.5t-53 41.5l19 75h47q16 -17 41.5 -37t59.5 -37t77.5 -28.5t95.5 -11.5q80 0 137.5 18.5t94 51t54 77t17.5 96.5q0 40 -13.5 69t-40.5 51t-67 39t-92 34q-62 20 -111.5 41.5t-85 51.5t-54.5 70.5t-19 98.5q0 68 25 125t72.5 98
t117.5 63.5t160 22.5q56 0 103 -8.5t85 -22t66.5 -30.5t46.5 -35l-19 -78h-43q-18 19 -40 36t-51.5 30t-66.5 20.5t-85 7.5q-68 0 -119 -16t-85.5 -45t-51.5 -69.5t-17 -88.5q0 -39 13.5 -67t40.5 -49t67 -37.5t92 -32.5q61 -19 111.5 -40.5t86.5 -51.5t55.5 -71.5
t19.5 -100.5q0 -71 -24.5 -132.5t-74.5 -107.5t-126 -72t-179 -26z" />
    <glyph glyph-name="t" unicode="t" horiz-adv-x="627" 
d="M324 -8q-139 0 -187 75.5t-16 215.5l162 706h-138l19 78h137l68 297h102l-68 -297h263l-21 -78h-260l-164 -715q-25 -107 9 -152.5t128 -45.5h119l-16 -70q-25 -5 -61 -9.5t-76 -4.5z" />
    <glyph glyph-name="u" unicode="u" horiz-adv-x="1112" 
d="M803 0q-44 0 -54.5 28t3.5 87l18 86q-51 -42 -106.5 -80.5t-115 -68t-122.5 -47t-129 -17.5q-59 0 -106.5 19.5t-77.5 59t-38.5 99.5t9.5 141l176 760h55q28 0 35.5 -12t-0.5 -47l-160 -695q-14 -64 -10.5 -109.5t21.5 -75t50 -43t75 -13.5q56 0 113.5 17t116 47
t118 71.5t119.5 89.5l178 770h104l-246 -1067h-26z" />
    <glyph glyph-name="v" unicode="v" horiz-adv-x="987" 
d="M160 1032v35h100l152 -928h4l538 928h88v-35l-606 -1032h-100z" />
    <glyph glyph-name="w" unicode="w" horiz-adv-x="1450" 
d="M164 1032v35h98l72 -903h4l457 903h86l90 -903h4l438 903h84v-35l-510 -1032h-94l-86 901h-2l-459 -901h-98z" />
    <glyph glyph-name="x" unicode="x" horiz-adv-x="1001" 
d="M-33 39l477 522l-221 469v37h90l209 -442l402 442h84v-37l-437 -477l240 -514v-39h-90l-227 487l-441 -487h-86v39z" />
    <glyph glyph-name="y" unicode="y" horiz-adv-x="993" 
d="M74 -293l258 387l-176 938v35h96l158 -860h2l544 860h88v-35l-880 -1364h-90v39z" />
    <glyph glyph-name="z" unicode="z" horiz-adv-x="940" 
d="M-35 80l885 907h-631l19 80h755l-18 -80l-887 -907h664l-17 -80h-786z" />
    <glyph glyph-name="braceleft" unicode="{" horiz-adv-x="657" 
d="M352 -100q-250 0 -194 239l98 426q12 56 -11.5 87.5t-86.5 31.5h-62l19 82h55q69 0 106.5 30.5t51.5 90.5l94 399q14 59 35.5 103t53 72.5t75 42.5t102.5 14h133l-20 -82h-107q-75 0 -114 -36.5t-58 -113.5l-92 -399q-17 -76 -56.5 -114.5t-99.5 -49.5v-2
q50 -16 74.5 -53t7.5 -109l-98 -426q-19 -80 4 -115.5t105 -35.5h98l-19 -82h-94z" />
    <glyph glyph-name="bar" unicode="|" horiz-adv-x="477" 
d="M238 1518h88v-1618h-88v1618z" />
    <glyph glyph-name="braceright" unicode="}" horiz-adv-x="657" 
d="M-55 -18h106q76 0 115 36t57 113l101 430q17 76 56 115.5t99 50.5v2q-24 8 -43 20.5t-30.5 31.5t-14 45.5t5.5 62.5l90 395q19 81 -4 116.5t-104 35.5h-98l18 82h94q250 0 195 -240l-90 -395q-13 -56 11 -86.5t87 -30.5h61l-18 -82h-55q-69 0 -106.5 -31.5t-51.5 -91.5
l-102 -430q-14 -59 -35.5 -102.5t-53.5 -72t-76 -42.5t-102 -14h-133z" />
    <glyph glyph-name="asciitilde" unicode="~" horiz-adv-x="668" 
d="M51 526q9 31 25.5 58t38 47t48.5 31.5t58 11.5q36 0 69.5 -13t64.5 -29t59 -29t53 -13q66 0 94 94h72v-39q-20 -65 -63.5 -106t-106.5 -41q-35 0 -68 13t-64.5 29t-60 29t-53.5 13q-70 0 -94 -97h-72v41z" />
    <glyph glyph-name="uni00A0" unicode="&#xa0;" horiz-adv-x="614" 
 />
    <glyph glyph-name="exclamdown" unicode="&#xa1;" horiz-adv-x="440" 
d="M129 -82l-18 -74h-111l18 74l261 1065h83zM373 1286q34 0 56 -22t22 -56q0 -32 -22 -56t-56 -24q-17 0 -31.5 6.5t-25.5 17.5t-17 25.5t-6 30.5q0 34 23 56t57 22z" />
    <glyph glyph-name="cent" unicode="&#xa2;" 
d="M514 -4q-83 10 -145 45t-103 89t-61.5 125.5t-20.5 154.5q0 87 19 169.5t55 155.5t87.5 134t116 106t140.5 71.5t162 30.5l29 121h86l-29 -123q50 -4 91.5 -14.5t74.5 -25.5t57.5 -33t40.5 -37l-18 -74h-49q-11 18 -30 35t-46 31.5t-62 24.5t-78 13l-213 -921
q58 2 104.5 13.5t84 27.5t66 34.5t51.5 36.5h49l-19 -77q-24 -18 -57.5 -38t-78 -37t-99.5 -29t-121 -13l-47 -201h-84zM289 412q0 -69 14.5 -127t44.5 -101t75.5 -70.5t108.5 -35.5l213 915q-105 -11 -189.5 -62.5t-143.5 -131t-91 -180t-32 -207.5z" />
    <glyph glyph-name="sterling" unicode="&#xa3;" 
d="M236 745h114q-2 46 -4 91t-2 89t4 87.5t14 85.5q19 81 57 144.5t96.5 108t138.5 68t182 23.5q62 0 114 -9.5t95 -25.5t78 -37.5t63 -46.5l-19 -82h-51q-48 48 -117 79.5t-170 31.5q-155 0 -242 -69t-118 -202q-9 -37 -13 -76.5t-4.5 -82t1 -87t2.5 -90.5h428l-21 -81
h-407q0 -70 -5 -142.5t-22 -146.5q-12 -54 -33 -97.5t-47.5 -78t-57.5 -62t-65 -49.5h760l-20 -88h-908l17 80q48 25 89 55t73.5 66.5t56.5 81t37 98.5q17 72 20.5 142.5t1.5 140.5h-137z" />
    <glyph glyph-name="yen" unicode="&#xa5;" 
d="M248 700h330l-242 691v43h96l232 -670h2l530 670h88v-43l-555 -691h326l-19 -79h-348l-31 -138h349l-19 -82h-348l-92 -401h-109l90 401h-348l19 82h348l33 138h-351z" />
    <glyph glyph-name="brokenbar" unicode="&#xa6;" horiz-adv-x="477" 
d="M238 637h92l-2 -737h-90v737zM238 1518h90l2 -732h-92v732z" />
    <glyph glyph-name="section" unicode="&#xa7;" horiz-adv-x="1034" 
d="M360 -268q-70 0 -128.5 13t-104 32.5t-78.5 41t-51 38.5l18 80h43q19 -22 45.5 -44t63.5 -39.5t86 -28.5t113 -11q62 0 113.5 13.5t89 41.5t58.5 69t21 97q0 40 -14 73.5t-46.5 63.5t-84.5 60t-127 65q-78 35 -134 69t-93 70.5t-54.5 77.5t-17.5 92q0 64 25 115.5t71 89
t111.5 61t146.5 33.5q-59 44 -86 97.5t-27 125.5t28 130.5t79 99t122 62.5t157 22q63 0 112.5 -10.5t88 -26t66.5 -34.5t46 -36l-19 -80h-38q-21 22 -46.5 41t-57.5 33t-71.5 22.5t-89.5 8.5q-62 0 -113 -15.5t-87.5 -44t-57 -70t-20.5 -93.5q0 -42 12 -75.5t39.5 -62.5
t72 -55t109.5 -53q71 -29 132 -60.5t106 -69.5t70.5 -86t25.5 -110q0 -68 -26.5 -120.5t-72.5 -91.5t-108.5 -64t-134.5 -37q54 -40 82.5 -90t28.5 -121q0 -75 -29 -132.5t-81 -96.5t-124.5 -59.5t-159.5 -20.5zM422 377q37 -19 70.5 -35t62.5 -33q67 8 127 25.5t105 47
t71.5 72t26.5 101.5q0 45 -17 80t-51 64.5t-86 56t-121 55.5q-23 9 -43 17.5t-39 17.5q-171 -14 -260.5 -70t-89.5 -155q0 -40 12 -71t40.5 -59t75.5 -55t116 -59z" />
    <glyph glyph-name="dieresis" unicode="&#xa8;" horiz-adv-x="844" 
d="M455 1231q-29 0 -49.5 20t-20.5 49q0 28 20.5 49t49.5 21t49 -21t20 -49q0 -29 -20 -49t-49 -20zM750 1231q-29 0 -49.5 20t-20.5 49q0 28 20.5 49t49.5 21t49 -21t20 -49q0 -29 -20 -49t-49 -20z" />
    <glyph glyph-name="copyright" unicode="&#xa9;" horiz-adv-x="1628" 
d="M879 319q-92 0 -163.5 28t-120.5 80t-75 126t-26 166t28.5 165.5t80.5 125t123 79t157 27.5q52 0 92.5 -7t71.5 -17.5t54 -24t40 -25.5v-81h-56q-13 16 -30.5 29.5t-41.5 23t-56 15t-74 5.5q-62 0 -114 -20.5t-89.5 -60.5t-58.5 -99t-21 -135q0 -158 74.5 -237t208.5 -79
q44 0 78.5 8t61 21t45 29t30.5 31h49v-78q-17 -16 -41.5 -33t-58 -30.5t-75.5 -22.5t-93 -9zM862 63q132 0 248.5 43t204 126.5t138 205t50.5 279.5q0 157 -50.5 279.5t-138 205.5t-204 126.5t-248.5 43.5t-248.5 -43.5t-203 -126.5t-137 -205.5t-50.5 -279.5
q0 -158 50.5 -279.5t137 -205t203 -126.5t248.5 -43zM862 -12q-97 0 -189 21.5t-172.5 63t-148 103.5t-115.5 143t-75 180.5t-27 217.5t27 217.5t75 180.5t115.5 143t148 103.5t172.5 63t189 21.5t189 -21.5t172.5 -63t148 -103.5t115.5 -143t75 -180.5t27 -217.5
t-27 -217.5t-75 -180.5t-115.5 -143t-148 -103.5t-172.5 -63t-189 -21.5z" />
    <glyph glyph-name="ordfeminine" unicode="&#xaa;" horiz-adv-x="850" 
d="M709 526q-35 0 -48.5 25.5t-1.5 81.5l5 20q-60 -63 -128 -98t-155 -35q-60 0 -108.5 15.5t-82.5 45.5t-52.5 73t-18.5 98q0 78 31 134.5t84.5 93t124.5 54t151 17.5q65 0 125.5 -11.5t109.5 -29.5l21 84q32 138 -20.5 203t-167.5 65q-91 0 -152 -20t-109 -54h-43l21 86
q60 31 128 49.5t163 18.5q80 0 140 -21.5t96.5 -66t46.5 -112t-11 -159.5l-127 -557h-22zM395 594q84 0 155 40t136 111l45 197q-46 17 -102.5 27t-116.5 10q-64 0 -118 -13.5t-93.5 -41t-61.5 -70t-22 -100.5q0 -83 49 -121.5t129 -38.5z" />
    <glyph glyph-name="guillemotleft" unicode="&#xab;" horiz-adv-x="905" 
d="M74 514l10 49l410 406h81v-39l-399 -400v-6l223 -389v-37h-84zM416 514l10 49l410 406h82v-39l-400 -400v-6l223 -389v-37h-84z" />
    <glyph glyph-name="registered" unicode="&#xae;" horiz-adv-x="848" 
d="M545 717q-74 0 -141.5 24.5t-119 71.5t-82 115t-30.5 155q0 88 30.5 156t82 115t119 71.5t141.5 24.5q73 0 140.5 -24.5t119.5 -71.5t83.5 -115t31.5 -156q0 -87 -31.5 -155t-83.5 -115t-119.5 -71.5t-140.5 -24.5zM541 778q63 0 118 20t96.5 58.5t65 95.5t23.5 131
q0 75 -23.5 132.5t-65 96t-96.5 58t-118 19.5t-118 -19.5t-96.5 -58t-65 -96t-23.5 -132.5q0 -74 23.5 -131t65 -95.5t96.5 -58.5t118 -20zM553 1049h-68v-156h-79v395h153q75 0 110.5 -31t35.5 -88q0 -38 -19.5 -66t-54.5 -42l82 -135v-33h-72zM553 1104q40 0 57 17t17 48
q0 28 -16 45t-58 17h-68v-127h68z" />
    <glyph glyph-name="macron" unicode="&#xaf;" horiz-adv-x="844" 
d="M383 1327h451l-17 -76h-450z" />
    <glyph glyph-name="degree" unicode="&#xb0;" horiz-adv-x="635" 
d="M461 1001q39 0 72 14.5t57 40t37.5 61t13.5 77.5q0 40 -12 72.5t-34.5 56t-53.5 36.5t-68 13q-38 0 -70.5 -14.5t-56.5 -40t-37.5 -60.5t-13.5 -77q0 -39 12 -72t34 -57t52.5 -37t67.5 -13zM459 928q-53 0 -98 17.5t-78.5 50t-52.5 78.5t-19 104q0 60 21 109.5t57 85
t84 54.5t102 19q53 0 98.5 -17.5t79.5 -50t53 -79.5t19 -105q0 -60 -21 -109t-57.5 -84t-85 -54t-102.5 -19z" />
    <glyph glyph-name="acute" unicode="&#xb4;" horiz-adv-x="844" 
d="M530 1204l191 230h96v-41l-227 -219h-60v30z" />
    <glyph glyph-name="paragraph" unicode="&#xb6;" horiz-adv-x="1100" 
d="M588 692h-15q-88 0 -162.5 19.5t-129 59t-85 99t-30.5 140.5q0 114 36.5 194.5t107.5 131.5t176 74.5t243 23.5h395l-374 -1620h-95l355 1529h-179l-354 -1529h-94z" />
    <glyph glyph-name="periodcentered" unicode="&#xb7;" horiz-adv-x="293" 
d="M166 565q-34 0 -55 21t-21 55t24 58t58 24t55 -21t21 -55t-24 -58t-58 -24z" />
    <glyph glyph-name="cedilla" unicode="&#xb8;" horiz-adv-x="844" 
d="M229 -356q-58 0 -94 13.5t-59 33.5l14 61h41q9 -15 32.5 -25t61.5 -10q42 0 67 17t25 55q0 28 -23 44.5t-71 16.5h-35l35 150h74l-18 -86q65 -5 96 -40.5t31 -86.5q0 -38 -14.5 -65t-39 -44t-56.5 -25.5t-67 -8.5z" />
    <glyph glyph-name="ordmasculine" unicode="&#xba;" horiz-adv-x="971" 
d="M516 600q86 0 158 39t123.5 106t80.5 156t29 189q0 63 -17.5 113.5t-50.5 86t-80.5 55t-107.5 19.5q-84 0 -156 -36.5t-124 -102t-81.5 -154.5t-29.5 -194q0 -135 68.5 -206t187.5 -71zM514 520q-84 0 -150 25t-111.5 72t-70 114t-24.5 150q0 117 37 219.5t102.5 179
t156 120.5t197.5 44q81 0 147.5 -25t113.5 -71t72.5 -112.5t25.5 -148.5q0 -117 -37.5 -220t-103.5 -180t-157 -122t-198 -45z" />
    <glyph glyph-name="guillemotright" unicode="&#xbb;" horiz-adv-x="905" 
d="M-8 137l397 400v6l-223 389v37h82l244 -416l-11 -49l-409 -406h-80v39zM332 137l399 400v6l-221 389v37h82l242 -416l-11 -49l-409 -406h-82v39z" />
    <glyph glyph-name="onequarter" unicode="&#xbc;" horiz-adv-x="1343" 
d="M1014 188h-387l18 80l496 496h96l-117 -506h111l-17 -70h-110l-43 -188h-90zM1030 258l88 385h-4l-379 -381v-4h295zM403 1331l-184 -90h-29l17 72l246 121h69l-176 -764h-96zM1257 1493h103l-1286 -1563h-103z" />
    <glyph glyph-name="onehalf" unicode="&#xbd;" horiz-adv-x="1421" 
d="M750 80l276 205q54 40 97 74t73.5 67t47 68.5t16.5 78.5q0 57 -38 90t-110 33q-63 0 -107.5 -20t-76.5 -49h-43l18 75q40 26 96 47t125 21q111 0 170.5 -52t59.5 -136q0 -51 -17.5 -93t-51.5 -81.5t-84 -80.5t-116 -89l-217 -160h387l-18 -78h-506zM397 1331l-184 -90
h-29l17 72l245 121h70l-176 -764h-96zM1243 1493h103l-1287 -1563h-102z" />
    <glyph glyph-name="threequarters" unicode="&#xbe;" horiz-adv-x="1430" 
d="M358 664q-45 0 -84.5 8t-73 21.5t-60 31t-44.5 35.5l15 67h45q10 -16 27.5 -32t42 -29t57 -21t73.5 -8q39 0 73.5 10.5t60 30.5t40.5 50t15 69q0 35 -11.5 60.5t-31.5 42t-47 24.5t-58 8h-69l14 68h82q37 0 68.5 8.5t55 26t37 44.5t13.5 64q0 63 -39 93t-115 30
q-54 0 -95 -17t-68 -38h-41l16 73q37 23 88 39.5t117 16.5q105 0 166 -47t61 -140q0 -42 -13.5 -74t-37.5 -55t-55.5 -37.5t-67.5 -21.5v-4q26 -7 49 -22t40 -36t26.5 -48t9.5 -58q0 -57 -22.5 -100.5t-60.5 -73t-89 -44.5t-109 -15zM1112 188h-387l18 80l496 496h96
l-116 -506h110l-16 -70h-111l-43 -188h-90zM1128 258l89 385h-5l-378 -381v-4h294zM1380 1493h103l-1286 -1563h-103z" />
    <glyph glyph-name="questiondown" unicode="&#xbf;" horiz-adv-x="877" 
d="M745 983q-5 -89 -24.5 -154.5t-54.5 -118.5t-85.5 -98.5t-117.5 -95.5q-47 -35 -102 -70.5t-102.5 -80t-79.5 -103.5t-32 -141q0 -57 20.5 -95t54 -61.5t77 -33t88.5 -9.5q60 0 107 8.5t84.5 22.5t67.5 33.5t56 42.5h50l-19 -90q-29 -21 -65 -39.5t-79.5 -33t-95.5 -22.5
t-114 -8q-64 0 -125.5 16t-109.5 50.5t-77.5 88.5t-29.5 130q0 86 29.5 150t77 115t107 93.5t120.5 85.5q63 43 113 82t86 85t58 106t29 145h88zM737 1286q34 0 56 -22t22 -56q0 -32 -22 -56t-56 -24q-17 0 -31.5 6.5t-25.5 17.5t-17 25.5t-6 30.5q0 34 23 56t57 22z" />
    <glyph glyph-name="Agrave" unicode="&#xc0;" horiz-adv-x="1262" 
d="M-41 43l817 1391h123l180 -1391v-43h-100l-57 449h-619l-262 -449h-82v43zM354 539h555l-98 774h-4zM805 1481l-137 182v41h96l104 -193v-30h-63z" />
    <glyph glyph-name="Aacute" unicode="&#xc1;" horiz-adv-x="1262" 
d="M-41 43l817 1391h123l180 -1391v-43h-100l-57 449h-619l-262 -449h-82v43zM354 539h555l-98 774h-4zM807 1511l158 193h96v-41l-194 -182h-60v30z" />
    <glyph glyph-name="Acircumflex" unicode="&#xc2;" horiz-adv-x="1262" 
d="M-41 43l817 1391h123l180 -1391v-43h-100l-57 449h-619l-262 -449h-82v43zM354 539h555l-98 774h-4zM614 1518l219 188h78l143 -188v-37h-61l-129 143l-193 -143h-57v37z" />
    <glyph glyph-name="Atilde" unicode="&#xc3;" horiz-adv-x="1262" 
d="M-41 43l817 1391h123l180 -1391v-43h-100l-57 449h-619l-262 -449h-82v43zM354 539h555l-98 774h-4zM962 1503q-32 0 -61 13t-55.5 28t-51 28t-47.5 13q-38 0 -57.5 -23t-32.5 -63h-67v37q9 26 23.5 50t34.5 42.5t44.5 29.5t54.5 11q32 0 61 -12.5t56 -27.5t52 -27.5
t49 -12.5q37 0 55 24t31 62h67v-39q-10 -27 -24 -51.5t-33 -42.5t-43.5 -28.5t-55.5 -10.5z" />
    <glyph glyph-name="Adieresis" unicode="&#xc4;" horiz-adv-x="1262" 
d="M-41 43l817 1391h123l180 -1391v-43h-100l-57 449h-619l-262 -449h-82v43zM354 539h555l-98 774h-4zM710 1501q-29 0 -49.5 20t-20.5 49q0 28 20.5 49t49.5 21t49 -21t20 -49q0 -29 -20 -49t-49 -20zM1005 1501q-29 0 -49.5 20t-20.5 49q0 28 20.5 49t49.5 21t49 -21
t20 -49q0 -29 -20 -49t-49 -20z" />
    <glyph glyph-name="Aring" unicode="&#xc5;" horiz-adv-x="1255" 
d="M-41 43l817 1391h123l180 -1391v-43h-100l-57 449h-619l-262 -449h-82v43zM354 539h555l-98 774h-4zM866 1554q22 0 42.5 8.5t36.5 24t25 37t9 47.5q0 43 -28.5 72.5t-72.5 29.5q-48 0 -79 -32.5t-31 -86.5q0 -48 28 -74t70 -26zM866 1489q-35 0 -66 10.5t-54.5 31.5
t-37.5 51.5t-14 71.5q0 42 15.5 76t41.5 58t59.5 37.5t69.5 13.5q35 0 66.5 -12t55 -34t37.5 -53.5t14 -70.5q0 -42 -16.5 -75.5t-43 -57t-60 -35.5t-67.5 -12z" />
    <glyph glyph-name="AE" unicode="&#xc6;" horiz-adv-x="1890" 
d="M-53 43l1048 1391h985l-22 -91h-709l-131 -559h543l-19 -88h-542l-139 -608h753l-20 -88h-863l103 449h-565l-334 -449h-88v43zM436 539h518l187 804h-105z" />
    <glyph glyph-name="Ccedilla" unicode="&#xc7;" horiz-adv-x="1278" 
d="M676 -8h-34t-34 2l-16 -80q65 -5 96 -40.5t31 -86.5q0 -38 -14.5 -65t-39 -44t-56.5 -25.5t-66 -8.5q-59 0 -95 13.5t-59 33.5l14 61h41q10 -15 33 -25t62 -10q42 0 67 17t25 55q0 28 -23 44.5t-71 16.5h-35l35 154q-96 18 -172 61.5t-129 112.5t-81 162t-28 209
q0 107 24 215t71 207.5t116.5 185.5t160.5 149t203 99.5t244 36.5q69 0 124.5 -8t100.5 -22.5t81.5 -35t68.5 -45.5l-23 -86h-47q-25 26 -54.5 46.5t-67 34.5t-84.5 21t-107 7q-115 0 -212 -33t-174.5 -90.5t-136.5 -135t-98 -167t-59 -186.5t-20 -193q0 -112 29 -199.5
t85 -147.5t138.5 -91t189.5 -31q131 0 229.5 38t169.5 97h58l-23 -90q-81 -63 -189.5 -98t-248.5 -35z" />
    <glyph glyph-name="Egrave" unicode="&#xc8;" horiz-adv-x="1141" 
d="M397 1434h834l-23 -91h-723l-131 -559h557l-18 -88h-557l-139 -608h768l-21 -88h-876zM811 1481l-137 182v41h96l104 -193v-30h-63z" />
    <glyph glyph-name="Eacute" unicode="&#xc9;" horiz-adv-x="1141" 
d="M397 1434h834l-23 -91h-723l-131 -559h557l-18 -88h-557l-139 -608h768l-21 -88h-876zM782 1511l158 193h96v-41l-194 -182h-60v30z" />
    <glyph glyph-name="Ecircumflex" unicode="&#xca;" horiz-adv-x="1141" 
d="M397 1434h834l-23 -91h-723l-131 -559h557l-18 -88h-557l-139 -608h768l-21 -88h-876zM619 1518l219 188h78l143 -188v-37h-61l-129 143l-193 -143h-57v37z" />
    <glyph glyph-name="Edieresis" unicode="&#xcb;" horiz-adv-x="1141" 
d="M397 1434h834l-23 -91h-723l-131 -559h557l-18 -88h-557l-139 -608h768l-21 -88h-876zM704 1501q-29 0 -49.5 20t-20.5 49q0 28 20.5 49t49.5 21t49 -21t20 -49q0 -29 -20 -49t-49 -20zM999 1501q-29 0 -49.5 20t-20.5 49q0 28 20.5 49t49.5 21t49 -21t20 -49
q0 -29 -20 -49t-49 -20z" />
    <glyph glyph-name="Igrave" unicode="&#xcc;" horiz-adv-x="487" 
d="M401 1434h109l-330 -1434h-108zM439 1481l-137 182v41h96l104 -193v-30h-63z" />
    <glyph glyph-name="Iacute" unicode="&#xcd;" horiz-adv-x="487" 
d="M401 1434h109l-330 -1434h-108zM431 1511l158 193h96v-41l-194 -182h-60v30z" />
    <glyph glyph-name="Icircumflex" unicode="&#xce;" horiz-adv-x="487" 
d="M401 1434h109l-330 -1434h-108zM249 1518l219 188h78l143 -188v-37h-61l-129 143l-193 -143h-57v37z" />
    <glyph glyph-name="Idieresis" unicode="&#xcf;" horiz-adv-x="487" 
d="M401 1434h109l-330 -1434h-108zM328 1501q-29 0 -49.5 20t-20.5 49q0 28 20.5 49t49.5 21t49 -21t20 -49q0 -29 -20 -49t-49 -20zM623 1501q-29 0 -49.5 20t-20.5 49q0 28 20.5 49t49.5 21t49 -21t20 -49q0 -29 -20 -49t-49 -20z" />
    <glyph glyph-name="Eth" unicode="&#xd0;" horiz-adv-x="1397" 
d="M82 764h160l155 670h398q133 0 236.5 -38.5t174.5 -110t108.5 -174t37.5 -230.5q0 -113 -24 -222.5t-70 -207.5t-113.5 -180.5t-155.5 -142.5t-195 -94t-231 -34h-495l153 674h-162zM561 88q111 0 205 31t169.5 86t132.5 130t95.5 163.5t58 185.5t19.5 197
q0 101 -27 186.5t-82.5 147.5t-140 96.5t-200.5 34.5h-308l-133 -582h424l-22 -90h-422l-135 -586h366z" />
    <glyph glyph-name="Ntilde" unicode="&#xd1;" horiz-adv-x="1397" 
d="M397 1434h135l498 -1256h4l289 1256h100l-329 -1434h-103l-518 1309h-4l-301 -1309h-100zM1059 1503q-32 0 -61 13t-55.5 28t-51 28t-47.5 13q-38 0 -57.5 -23t-32.5 -63h-67v37q9 26 23.5 50t34.5 42.5t44.5 29.5t54.5 11q32 0 61 -12.5t56 -27.5t52 -27.5t49 -12.5
q37 0 55 24t31 62h67v-39q-10 -27 -24 -51.5t-33 -42.5t-43.5 -28.5t-55.5 -10.5z" />
    <glyph glyph-name="Ograve" unicode="&#xd2;" horiz-adv-x="1466" 
d="M676 78q100 0 186 33t156.5 90t125.5 134.5t92.5 166.5t57 185.5t19.5 191.5q0 101 -25.5 188.5t-78.5 151.5t-136.5 100.5t-198.5 36.5q-98 0 -183.5 -32.5t-156.5 -90t-126.5 -134.5t-93.5 -165.5t-58 -185t-20 -191.5q0 -104 26 -192t80 -152t137 -99.5t197 -35.5z
M672 -8q-131 0 -232.5 41t-171 115.5t-105.5 179t-36 231.5q0 108 24 216t69 206t110.5 182.5t149 146t183.5 97t214 35.5q131 0 232.5 -40.5t170.5 -114.5t105 -177.5t36 -230.5q0 -110 -23.5 -218.5t-68.5 -207t-110 -183t-148 -146.5t-183.5 -97t-215.5 -35zM885 1481
l-137 182v41h96l104 -193v-30h-63z" />
    <glyph glyph-name="Oacute" unicode="&#xd3;" horiz-adv-x="1466" 
d="M676 78q100 0 186 33t156.5 90t125.5 134.5t92.5 166.5t57 185.5t19.5 191.5q0 101 -25.5 188.5t-78.5 151.5t-136.5 100.5t-198.5 36.5q-98 0 -183.5 -32.5t-156.5 -90t-126.5 -134.5t-93.5 -165.5t-58 -185t-20 -191.5q0 -104 26 -192t80 -152t137 -99.5t197 -35.5z
M672 -8q-131 0 -232.5 41t-171 115.5t-105.5 179t-36 231.5q0 108 24 216t69 206t110.5 182.5t149 146t183.5 97t214 35.5q131 0 232.5 -40.5t170.5 -114.5t105 -177.5t36 -230.5q0 -110 -23.5 -218.5t-68.5 -207t-110 -183t-148 -146.5t-183.5 -97t-215.5 -35zM876 1511
l158 193h96v-41l-194 -182h-60v30z" />
    <glyph glyph-name="Ocircumflex" unicode="&#xd4;" horiz-adv-x="1466" 
d="M676 78q100 0 186 33t156.5 90t125.5 134.5t92.5 166.5t57 185.5t19.5 191.5q0 101 -25.5 188.5t-78.5 151.5t-136.5 100.5t-198.5 36.5q-98 0 -183.5 -32.5t-156.5 -90t-126.5 -134.5t-93.5 -165.5t-58 -185t-20 -191.5q0 -104 26 -192t80 -152t137 -99.5t197 -35.5z
M672 -8q-131 0 -232.5 41t-171 115.5t-105.5 179t-36 231.5q0 108 24 216t69 206t110.5 182.5t149 146t183.5 97t214 35.5q131 0 232.5 -40.5t170.5 -114.5t105 -177.5t36 -230.5q0 -110 -23.5 -218.5t-68.5 -207t-110 -183t-148 -146.5t-183.5 -97t-215.5 -35zM696 1518
l219 188h78l143 -188v-37h-61l-129 143l-193 -143h-57v37z" />
    <glyph glyph-name="Otilde" unicode="&#xd5;" horiz-adv-x="1466" 
d="M676 78q100 0 186 33t156.5 90t125.5 134.5t92.5 166.5t57 185.5t19.5 191.5q0 101 -25.5 188.5t-78.5 151.5t-136.5 100.5t-198.5 36.5q-98 0 -183.5 -32.5t-156.5 -90t-126.5 -134.5t-93.5 -165.5t-58 -185t-20 -191.5q0 -104 26 -192t80 -152t137 -99.5t197 -35.5z
M672 -8q-131 0 -232.5 41t-171 115.5t-105.5 179t-36 231.5q0 108 24 216t69 206t110.5 182.5t149 146t183.5 97t214 35.5q131 0 232.5 -40.5t170.5 -114.5t105 -177.5t36 -230.5q0 -110 -23.5 -218.5t-68.5 -207t-110 -183t-148 -146.5t-183.5 -97t-215.5 -35zM1039 1503
q-32 0 -61 13t-55.5 28t-51 28t-47.5 13q-38 0 -57.5 -23t-32.5 -63h-67v37q9 26 23.5 50t34.5 42.5t44.5 29.5t54.5 11q32 0 61 -12.5t56 -27.5t52 -27.5t49 -12.5q37 0 55 24t31 62h67v-39q-10 -27 -24 -51.5t-33 -42.5t-43.5 -28.5t-55.5 -10.5z" />
    <glyph glyph-name="Odieresis" unicode="&#xd6;" horiz-adv-x="1466" 
d="M676 78q100 0 186 33t156.5 90t125.5 134.5t92.5 166.5t57 185.5t19.5 191.5q0 101 -25.5 188.5t-78.5 151.5t-136.5 100.5t-198.5 36.5q-98 0 -183.5 -32.5t-156.5 -90t-126.5 -134.5t-93.5 -165.5t-58 -185t-20 -191.5q0 -104 26 -192t80 -152t137 -99.5t197 -35.5z
M672 -8q-131 0 -232.5 41t-171 115.5t-105.5 179t-36 231.5q0 108 24 216t69 206t110.5 182.5t149 146t183.5 97t214 35.5q131 0 232.5 -40.5t170.5 -114.5t105 -177.5t36 -230.5q0 -110 -23.5 -218.5t-68.5 -207t-110 -183t-148 -146.5t-183.5 -97t-215.5 -35zM772 1501
q-29 0 -49.5 20t-20.5 49q0 28 20.5 49t49.5 21t49 -21t20 -49q0 -29 -20 -49t-49 -20zM1067 1501q-29 0 -49.5 20t-20.5 49q0 28 20.5 49t49.5 21t49 -21t20 -49q0 -29 -20 -49t-49 -20z" />
    <glyph glyph-name="multiply" unicode="&#xd7;" 
d="M213 379l375 317l-240 316l74 61l237 -313l375 317l56 -69l-375 -320l239 -313l-73 -62l-240 314l-373 -318z" />
    <glyph glyph-name="Oslash" unicode="&#xd8;" horiz-adv-x="1466" 
d="M672 -8q-121 0 -216.5 35t-164.5 100l-166 -182h-76v30l191 209q-56 73 -84.5 168t-28.5 207q0 108 24 216t69 206t110.5 182.5t149 146t183.5 97t214 35.5q120 0 214.5 -35t163.5 -100l150 166h76v-31l-172 -191q55 -72 83.5 -166t28.5 -206q0 -110 -23.5 -218.5
t-68.5 -207t-110 -183t-148 -146.5t-183.5 -97t-215.5 -35zM676 78q100 0 186 33t156.5 90t125.5 134.5t92.5 166.5t57 185.5t19.5 191.5q0 85 -17.5 161t-54.5 136l-887 -979q54 -57 133 -88t189 -31zM236 557q0 -88 17 -162.5t54 -134.5l885 977q-53 57 -131 89t-187 32
q-98 0 -183.5 -33t-156.5 -90t-126.5 -134.5t-93.5 -166.5t-58 -185.5t-20 -191.5z" />
    <glyph glyph-name="Ugrave" unicode="&#xd9;" horiz-adv-x="1391" 
d="M649 -8q-131 0 -232 31.5t-163.5 97.5t-83 166.5t11.5 238.5l209 908h109l-211 -918q-26 -111 -13.5 -192.5t59.5 -135t127 -79.5t189 -27q82 0 152 16t125.5 55.5t96 106.5t64.5 168l232 1006h100l-233 -1014q-27 -116 -75.5 -197.5t-117 -132.5t-155.5 -74.5
t-191 -23.5zM877 1481l-137 182v41h96l104 -193v-30h-63z" />
    <glyph glyph-name="Uacute" unicode="&#xda;" horiz-adv-x="1391" 
d="M649 -8q-131 0 -232 31.5t-163.5 97.5t-83 166.5t11.5 238.5l209 908h109l-211 -918q-26 -111 -13.5 -192.5t59.5 -135t127 -79.5t189 -27q82 0 152 16t125.5 55.5t96 106.5t64.5 168l232 1006h100l-233 -1014q-27 -116 -75.5 -197.5t-117 -132.5t-155.5 -74.5
t-191 -23.5zM862 1511l158 193h96v-41l-194 -182h-60v30z" />
    <glyph glyph-name="Ucircumflex" unicode="&#xdb;" horiz-adv-x="1391" 
d="M649 -8q-131 0 -232 31.5t-163.5 97.5t-83 166.5t11.5 238.5l209 908h109l-211 -918q-26 -111 -13.5 -192.5t59.5 -135t127 -79.5t189 -27q82 0 152 16t125.5 55.5t96 106.5t64.5 168l232 1006h100l-233 -1014q-27 -116 -75.5 -197.5t-117 -132.5t-155.5 -74.5
t-191 -23.5zM688 1518l219 188h78l143 -188v-37h-61l-129 143l-193 -143h-57v37z" />
    <glyph glyph-name="Udieresis" unicode="&#xdc;" horiz-adv-x="1391" 
d="M649 -8q-131 0 -232 31.5t-163.5 97.5t-83 166.5t11.5 238.5l209 908h109l-211 -918q-26 -111 -13.5 -192.5t59.5 -135t127 -79.5t189 -27q82 0 152 16t125.5 55.5t96 106.5t64.5 168l232 1006h100l-233 -1014q-27 -116 -75.5 -197.5t-117 -132.5t-155.5 -74.5
t-191 -23.5zM779 1501q-29 0 -49.5 20t-20.5 49q0 28 20.5 49t49.5 21t49 -21t20 -49q0 -29 -20 -49t-49 -20zM1074 1501q-29 0 -49.5 20t-20.5 49q0 28 20.5 49t49.5 21t49 -21t20 -49q0 -29 -20 -49t-49 -20z" />
    <glyph glyph-name="Yacute" unicode="&#xdd;" horiz-adv-x="1130" 
d="M541 604l-281 787v43h98l260 -732h3l567 732h86v-43l-625 -795l-137 -596h-111zM737 1511l158 193h96v-41l-194 -182h-60v30z" />
    <glyph glyph-name="Thorn" unicode="&#xde;" horiz-adv-x="1149" 
d="M397 1434h109l-68 -295h242q102 0 183 -20.5t137 -62.5t86 -106t30 -151q0 -125 -43 -213.5t-121 -144.5t-185.5 -82.5t-236.5 -26.5h-278l-76 -332h-108zM537 418q104 0 191 19t149.5 64t97.5 119t35 183q0 67 -23.5 113.5t-67.5 76t-106.5 43t-140.5 13.5h-254
l-146 -631h265z" />
    <glyph glyph-name="germandbls" unicode="&#xdf;" horiz-adv-x="1124" 
d="M657 -8q-100 0 -169 24t-111 58l16 71h41q31 -34 88.5 -53.5t134.5 -19.5q71 0 123 17.5t86.5 47t51 69t16.5 83.5q0 40 -16 72t-42.5 58t-61.5 47t-73 40q-46 24 -81 45.5t-58 45t-35 49.5t-12 59q0 36 16 67t44.5 60t66.5 57.5t82 60.5q37 28 77 56t73 58.5t54 65.5
t21 76q0 76 -60 117t-171 41q-83 0 -148 -23.5t-114 -68t-82 -109t-52 -145.5l-231 -1018h-104l235 1020q22 97 63 175.5t102.5 134t144.5 85t190 29.5q73 0 133.5 -16t104 -46t67 -73.5t23.5 -98.5q0 -51 -22 -93t-59.5 -80t-86.5 -73t-103 -71q-36 -26 -67 -47.5
t-53.5 -42t-35 -42t-12.5 -46.5q0 -20 11.5 -37t32.5 -33.5t49 -32.5t61 -34q45 -25 86 -51.5t72.5 -59.5t50 -74.5t18.5 -95.5q0 -65 -24.5 -121t-72 -97t-117.5 -64t-161 -23z" />
    <glyph glyph-name="agrave" unicode="&#xe0;" horiz-adv-x="981" 
d="M694 0q-15 0 -27.5 4.5t-20 17.5t-8.5 35t7 58l6 28q-31 -32 -67.5 -60t-78.5 -48t-89.5 -31.5t-100.5 -11.5q-66 0 -120 17.5t-92 52t-59 84t-21 114.5q0 86 33.5 151.5t94 110t145.5 67.5t189 23q82 0 145.5 -14.5t117.5 -34.5l34 148q18 78 8.5 132.5t-39 88.5
t-76 49.5t-104.5 15.5q-56 0 -102.5 -6.5t-85.5 -17.5t-72 -26.5t-61 -33.5h-41l18 84q33 17 69 32t78 26t92 17.5t112 6.5q80 0 146 -21.5t109 -67t58 -117t-8 -171.5l-162 -702h-27zM332 68q54 0 102 13.5t90 37.5t79.5 57.5t72.5 73.5l55 242q-51 20 -111 33.5t-133 13.5
q-85 0 -153 -17.5t-115 -52.5t-72.5 -86.5t-25.5 -118.5q0 -97 57 -146.5t154 -49.5zM409 1393v41h97l127 -230v-30h-64z" />
    <glyph glyph-name="aacute" unicode="&#xe1;" horiz-adv-x="981" 
d="M694 0q-15 0 -27.5 4.5t-20 17.5t-8.5 35t7 58l6 28q-31 -32 -67.5 -60t-78.5 -48t-89.5 -31.5t-100.5 -11.5q-66 0 -120 17.5t-92 52t-59 84t-21 114.5q0 86 33.5 151.5t94 110t145.5 67.5t189 23q82 0 145.5 -14.5t117.5 -34.5l34 148q18 78 8.5 132.5t-39 88.5
t-76 49.5t-104.5 15.5q-56 0 -102.5 -6.5t-85.5 -17.5t-72 -26.5t-61 -33.5h-41l18 84q33 17 69 32t78 26t92 17.5t112 6.5q80 0 146 -21.5t109 -67t58 -117t-8 -171.5l-162 -702h-27zM332 68q54 0 102 13.5t90 37.5t79.5 57.5t72.5 73.5l55 242q-51 20 -111 33.5t-133 13.5
q-85 0 -153 -17.5t-115 -52.5t-72.5 -86.5t-25.5 -118.5q0 -97 57 -146.5t154 -49.5zM565 1204l191 230h96v-41l-227 -219h-60v30z" />
    <glyph glyph-name="acircumflex" unicode="&#xe2;" horiz-adv-x="981" 
d="M694 0q-15 0 -27.5 4.5t-20 17.5t-8.5 35t7 58l6 28q-31 -32 -67.5 -60t-78.5 -48t-89.5 -31.5t-100.5 -11.5q-66 0 -120 17.5t-92 52t-59 84t-21 114.5q0 86 33.5 151.5t94 110t145.5 67.5t189 23q82 0 145.5 -14.5t117.5 -34.5l34 148q18 78 8.5 132.5t-39 88.5
t-76 49.5t-104.5 15.5q-56 0 -102.5 -6.5t-85.5 -17.5t-72 -26.5t-61 -33.5h-41l18 84q33 17 69 32t78 26t92 17.5t112 6.5q80 0 146 -21.5t109 -67t58 -117t-8 -171.5l-162 -702h-27zM332 68q54 0 102 13.5t90 37.5t79.5 57.5t72.5 73.5l55 242q-51 20 -111 33.5t-133 13.5
q-85 0 -153 -17.5t-115 -52.5t-72.5 -86.5t-25.5 -118.5q0 -97 57 -146.5t154 -49.5zM364 1210l238 224h80l139 -224v-36h-61l-127 182l-211 -182h-58v36z" />
    <glyph glyph-name="atilde" unicode="&#xe3;" horiz-adv-x="981" 
d="M694 0q-15 0 -27.5 4.5t-20 17.5t-8.5 35t7 58l6 28q-31 -32 -67.5 -60t-78.5 -48t-89.5 -31.5t-100.5 -11.5q-66 0 -120 17.5t-92 52t-59 84t-21 114.5q0 86 33.5 151.5t94 110t145.5 67.5t189 23q82 0 145.5 -14.5t117.5 -34.5l34 148q18 78 8.5 132.5t-39 88.5
t-76 49.5t-104.5 15.5q-56 0 -102.5 -6.5t-85.5 -17.5t-72 -26.5t-61 -33.5h-41l18 84q33 17 69 32t78 26t92 17.5t112 6.5q80 0 146 -21.5t109 -67t58 -117t-8 -171.5l-162 -702h-27zM332 68q54 0 102 13.5t90 37.5t79.5 57.5t72.5 73.5l55 242q-51 20 -111 33.5t-133 13.5
q-85 0 -153 -17.5t-115 -52.5t-72.5 -86.5t-25.5 -118.5q0 -97 57 -146.5t154 -49.5zM733 1206q-32 0 -61 13t-55.5 28t-51 28t-47.5 13q-38 0 -57.5 -23t-32.5 -63h-67v37q9 26 23.5 50t34.5 42.5t44.5 29.5t54.5 11q32 0 61 -12.5t56 -27.5t52 -27.5t49 -12.5q37 0 55 24
t31 62h67v-39q-10 -27 -24 -51.5t-33 -42.5t-43.5 -28.5t-55.5 -10.5z" />
    <glyph glyph-name="adieresis" unicode="&#xe4;" horiz-adv-x="981" 
d="M694 0q-15 0 -27.5 4.5t-20 17.5t-8.5 35t7 58l6 28q-31 -32 -67.5 -60t-78.5 -48t-89.5 -31.5t-100.5 -11.5q-66 0 -120 17.5t-92 52t-59 84t-21 114.5q0 86 33.5 151.5t94 110t145.5 67.5t189 23q82 0 145.5 -14.5t117.5 -34.5l34 148q18 78 8.5 132.5t-39 88.5
t-76 49.5t-104.5 15.5q-56 0 -102.5 -6.5t-85.5 -17.5t-72 -26.5t-61 -33.5h-41l18 84q33 17 69 32t78 26t92 17.5t112 6.5q80 0 146 -21.5t109 -67t58 -117t-8 -171.5l-162 -702h-27zM332 68q54 0 102 13.5t90 37.5t79.5 57.5t72.5 73.5l55 242q-51 20 -111 33.5t-133 13.5
q-85 0 -153 -17.5t-115 -52.5t-72.5 -86.5t-25.5 -118.5q0 -97 57 -146.5t154 -49.5zM473 1231q-29 0 -49.5 20t-20.5 49q0 28 20.5 49t49.5 21t49 -21t20 -49q0 -29 -20 -49t-49 -20zM768 1231q-29 0 -49.5 20t-20.5 49q0 28 20.5 49t49.5 21t49 -21t20 -49q0 -29 -20 -49
t-49 -20z" />
    <glyph glyph-name="aring" unicode="&#xe5;" horiz-adv-x="981" 
d="M694 0q-15 0 -27.5 4.5t-20 17.5t-8.5 35t7 58l6 28q-31 -32 -67.5 -60t-78.5 -48t-89.5 -31.5t-100.5 -11.5q-66 0 -120 17.5t-92 52t-59 84t-21 114.5q0 86 33.5 151.5t94 110t145.5 67.5t189 23q82 0 145.5 -14.5t117.5 -34.5l34 148q18 78 8.5 132.5t-39 88.5
t-76 49.5t-104.5 15.5q-56 0 -102.5 -6.5t-85.5 -17.5t-72 -26.5t-61 -33.5h-41l18 84q33 17 69 32t78 26t92 17.5t112 6.5q80 0 146 -21.5t109 -67t58 -117t-8 -171.5l-162 -702h-27zM332 68q54 0 102 13.5t90 37.5t79.5 57.5t72.5 73.5l55 242q-51 20 -111 33.5t-133 13.5
q-85 0 -153 -17.5t-115 -52.5t-72.5 -86.5t-25.5 -118.5q0 -97 57 -146.5t154 -49.5zM616 1241q22 0 42.5 8.5t36.5 24t25 37t9 47.5q0 43 -28.5 72.5t-72.5 29.5q-48 0 -79 -32.5t-31 -86.5q0 -48 28 -74t70 -26zM616 1176q-35 0 -66 10.5t-54.5 31.5t-37.5 51.5t-14 71.5
q0 42 15.5 76t41.5 58t59.5 37.5t69.5 13.5q35 0 66.5 -12t55 -34t37.5 -53.5t14 -70.5q0 -42 -16.5 -75.5t-43 -57t-60 -35.5t-67.5 -12z" />
    <glyph glyph-name="ae" unicode="&#xe6;" horiz-adv-x="1688" 
d="M324 -8q-69 0 -124.5 17.5t-94.5 52t-60.5 84t-21.5 114.5q0 86 33.5 151t94 109t145.5 66t189 22h273l24 103q18 78 8.5 132.5t-39 88.5t-76 49.5t-104.5 15.5q-56 0 -102.5 -6.5t-85.5 -17.5t-72 -26.5t-61 -33.5h-41l18 84q33 17 69 32t78 26t92 17.5t112 6.5
q63 0 116 -13.5t93 -42t64.5 -72.5t29.5 -105q38 52 84.5 95t100.5 73.5t115 47.5t128 17q84 -1 146.5 -24.5t104 -67t62 -105.5t20.5 -139q0 -51 -9 -105.5t-21 -107.5h-768q-5 -31 -7.5 -61.5t-2.5 -62.5q0 -77 18 -138t55.5 -104t95.5 -65.5t138 -22.5q61 0 112 9.5
t93 25.5t74.5 37.5t58.5 44.5h47l-23 -87q-24 -18 -58.5 -38.5t-81 -37t-104 -27.5t-126.5 -11q-73 0 -133 16.5t-106.5 47.5t-80 74t-53.5 97q-32 -44 -74.5 -86.5t-97 -75.5t-120.5 -53t-144 -20zM731 406q0 34 3 63.5t9 60.5h-258q-85 0 -152.5 -16.5t-114.5 -49.5
t-72 -83t-25 -117q0 -96 59 -146t164 -50q72 0 131.5 20.5t107.5 55t86 79t68 92.5q-6 43 -6 91zM1305 1001q-80 0 -150.5 -29.5t-128.5 -81.5t-100.5 -124.5t-65.5 -157.5h670q9 34 13.5 69t4.5 66q0 132 -63 195t-180 63z" />
    <glyph glyph-name="ccedilla" unicode="&#xe7;" horiz-adv-x="987" 
d="M469 -8h-20.5t-18.5 2l-16 -80q65 -5 96 -40.5t31 -86.5q0 -38 -14.5 -65t-39 -44t-56.5 -25.5t-66 -8.5q-59 0 -95 13.5t-59 33.5l14 61h41q10 -15 33 -25t61 -10q42 0 67.5 17t25.5 55q0 28 -23.5 44.5t-71.5 16.5h-34l34 152q-72 16 -125.5 52.5t-89.5 90t-53.5 120.5
t-17.5 145q0 90 20.5 174.5t58.5 159t92.5 136t122.5 106t148 69t170 24.5q61 0 110 -10t86.5 -26t64 -36.5t44.5 -41.5l-18 -74h-49q-12 19 -31 38t-48 34t-67.5 24.5t-89.5 9.5q-117 0 -211 -48.5t-160.5 -129.5t-102.5 -187t-36 -220q0 -76 18 -138.5t54.5 -106.5
t93 -68.5t133.5 -24.5q64 0 114 10.5t88.5 27t68 36.5t53.5 38h49l-19 -77q-24 -19 -57.5 -39.5t-78 -38t-100 -28.5t-124.5 -11z" />
    <glyph glyph-name="egrave" unicode="&#xe8;" horiz-adv-x="1028" 
d="M473 -8q-100 0 -175 30.5t-125.5 85.5t-75.5 131t-25 167q0 132 42.5 253.5t118.5 215t182 149t234 55.5q84 -1 146.5 -24.5t104 -67t62.5 -105.5t21 -139q0 -51 -9 -105.5t-22 -107.5h-768q-6 -31 -8 -62.5t-2 -61.5q0 -77 18 -138t55.5 -104t95.5 -65.5t138 -22.5
q61 0 112.5 9.5t93 25.5t74 37.5t56.5 44.5h49l-22 -87q-24 -18 -59 -38.5t-81.5 -37t-104 -27.5t-126.5 -11zM645 1001q-82 0 -153 -30.5t-128 -83.5t-98.5 -124.5t-64.5 -154.5h669q10 35 14.5 69.5t4.5 65.5q0 132 -63 195t-181 63zM475 1393v41h97l127 -230v-30h-64z
" />
    <glyph glyph-name="eacute" unicode="&#xe9;" horiz-adv-x="1028" 
d="M473 -8q-100 0 -175 30.5t-125.5 85.5t-75.5 131t-25 167q0 132 42.5 253.5t118.5 215t182 149t234 55.5q84 -1 146.5 -24.5t104 -67t62.5 -105.5t21 -139q0 -51 -9 -105.5t-22 -107.5h-768q-6 -31 -8 -62.5t-2 -61.5q0 -77 18 -138t55.5 -104t95.5 -65.5t138 -22.5
q61 0 112.5 9.5t93 25.5t74 37.5t56.5 44.5h49l-22 -87q-24 -18 -59 -38.5t-81.5 -37t-104 -27.5t-126.5 -11zM645 1001q-82 0 -153 -30.5t-128 -83.5t-98.5 -124.5t-64.5 -154.5h669q10 35 14.5 69.5t4.5 65.5q0 132 -63 195t-181 63zM628 1204l191 230h96v-41l-227 -219
h-60v30z" />
    <glyph glyph-name="ecircumflex" unicode="&#xea;" horiz-adv-x="1028" 
d="M473 -8q-100 0 -175 30.5t-125.5 85.5t-75.5 131t-25 167q0 132 42.5 253.5t118.5 215t182 149t234 55.5q84 -1 146.5 -24.5t104 -67t62.5 -105.5t21 -139q0 -51 -9 -105.5t-22 -107.5h-768q-6 -31 -8 -62.5t-2 -61.5q0 -77 18 -138t55.5 -104t95.5 -65.5t138 -22.5
q61 0 112.5 9.5t93 25.5t74 37.5t56.5 44.5h49l-22 -87q-24 -18 -59 -38.5t-81.5 -37t-104 -27.5t-126.5 -11zM645 1001q-82 0 -153 -30.5t-128 -83.5t-98.5 -124.5t-64.5 -154.5h669q10 35 14.5 69.5t4.5 65.5q0 132 -63 195t-181 63zM440 1210l238 224h80l139 -224v-36
h-61l-127 182l-211 -182h-58v36z" />
    <glyph glyph-name="edieresis" unicode="&#xeb;" horiz-adv-x="1028" 
d="M473 -8q-100 0 -175 30.5t-125.5 85.5t-75.5 131t-25 167q0 132 42.5 253.5t118.5 215t182 149t234 55.5q84 -1 146.5 -24.5t104 -67t62.5 -105.5t21 -139q0 -51 -9 -105.5t-22 -107.5h-768q-6 -31 -8 -62.5t-2 -61.5q0 -77 18 -138t55.5 -104t95.5 -65.5t138 -22.5
q61 0 112.5 9.5t93 25.5t74 37.5t56.5 44.5h49l-22 -87q-24 -18 -59 -38.5t-81.5 -37t-104 -27.5t-126.5 -11zM645 1001q-82 0 -153 -30.5t-128 -83.5t-98.5 -124.5t-64.5 -154.5h669q10 35 14.5 69.5t4.5 65.5q0 132 -63 195t-181 63zM539 1231q-29 0 -49.5 20t-20.5 49
q0 28 20.5 49t49.5 21t49 -21t20 -49q0 -29 -20 -49t-49 -20zM834 1231q-29 0 -49.5 20t-20.5 49q0 28 20.5 49t49.5 21t49 -21t20 -49q0 -29 -20 -49t-49 -20z" />
    <glyph glyph-name="igrave" unicode="&#xec;" horiz-adv-x="414" 
d="M279 1067h32q19 0 31.5 -3.5t18 -14.5t4.5 -31t-9 -53l-221 -965h-102zM154 1393v41h97l127 -230v-30h-64z" />
    <glyph glyph-name="iacute" unicode="&#xed;" horiz-adv-x="414" 
d="M279 1067h32q19 0 31.5 -3.5t18 -14.5t4.5 -31t-9 -53l-221 -965h-102zM310 1204l191 230h96v-41l-227 -219h-60v30z" />
    <glyph glyph-name="icircumflex" unicode="&#xee;" horiz-adv-x="414" 
d="M279 1067h32q19 0 31.5 -3.5t18 -14.5t4.5 -31t-9 -53l-221 -965h-102zM122 1210l238 224h80l139 -224v-36h-61l-127 182l-211 -182h-58v36z" />
    <glyph glyph-name="idieresis" unicode="&#xef;" horiz-adv-x="414" 
d="M279 1067h32q19 0 31.5 -3.5t18 -14.5t4.5 -31t-9 -53l-221 -965h-102zM220 1231q-29 0 -49.5 20t-20.5 49q0 28 20.5 49t49.5 21t49 -21t20 -49q0 -29 -20 -49t-49 -20zM515 1231q-29 0 -49.5 20t-20.5 49q0 28 20.5 49t49.5 21t49 -21t20 -49q0 -29 -20 -49t-49 -20z
" />
    <glyph glyph-name="eth" unicode="&#xf0;" horiz-adv-x="1135" 
d="M455 1167l196 121q-43 25 -93 43.5t-105 30.5l16 72h37q63 -17 120.5 -40.5t106.5 -54.5l152 95h80v-31l-170 -105q127 -95 194.5 -248.5t67.5 -371.5q0 -145 -42.5 -270.5t-118.5 -217.5t-181.5 -145t-231.5 -53q-96 0 -172 29t-129.5 83t-81.5 132t-28 176q0 88 19 172
t54 158t85 136t112 106.5t135 69.5t154 25q93 0 172 -36t127 -111q-26 100 -80 180t-135 137l-180 -110h-80v28zM487 72q107 0 193 49t146.5 131.5t93 189t32.5 222.5q0 79 -21 141t-61 105t-98 66t-133 23q-105 0 -191 -48t-147 -129t-94 -188t-33 -226q0 -162 80.5 -249
t232.5 -87z" />
    <glyph glyph-name="ntilde" unicode="&#xf1;" horiz-adv-x="1116" 
d="M272 1067h31q42 0 51 -28t-4 -81l-22 -94q54 43 113 82t122 68.5t129.5 47t134.5 17.5q58 0 103 -19.5t72.5 -59t34.5 -99.5t-11 -141l-176 -760h-51q-29 0 -37 13t0 48l160 695q15 63 12 108t-21 73.5t-50 42t-75 13.5q-57 0 -117 -17t-121 -47.5t-122.5 -72.5
t-122.5 -92l-176 -764h-102zM802 1206q-32 0 -61 13t-55.5 28t-51 28t-47.5 13q-38 0 -57.5 -23t-32.5 -63h-67v37q9 26 23.5 50t34.5 42.5t44.5 29.5t54.5 11q32 0 61 -12.5t56 -27.5t52 -27.5t49 -12.5q37 0 55 24t31 62h67v-39q-10 -27 -24 -51.5t-33 -42.5t-43.5 -28.5
t-55.5 -10.5z" />
    <glyph glyph-name="ograve" unicode="&#xf2;" horiz-adv-x="1137" 
d="M489 72q108 0 196 49t149.5 131.5t95 189t33.5 222.5q0 164 -82 249.5t-232 85.5q-106 0 -193.5 -47t-150 -127.5t-97 -187t-34.5 -225.5q0 -170 83 -255t232 -85zM487 -8q-98 0 -175 28.5t-130 82.5t-81.5 132t-28.5 177q0 91 19.5 176t56 159t88 135t116 105t140 68
t159.5 24q97 0 173.5 -29t130 -83.5t82 -131.5t28.5 -173q0 -136 -42 -258t-118.5 -213.5t-183 -145t-234.5 -53.5zM487 1393v41h97l127 -230v-30h-64z" />
    <glyph glyph-name="oacute" unicode="&#xf3;" horiz-adv-x="1137" 
d="M489 72q108 0 196 49t149.5 131.5t95 189t33.5 222.5q0 164 -82 249.5t-232 85.5q-106 0 -193.5 -47t-150 -127.5t-97 -187t-34.5 -225.5q0 -170 83 -255t232 -85zM487 -8q-98 0 -175 28.5t-130 82.5t-81.5 132t-28.5 177q0 91 19.5 176t56 159t88 135t116 105t140 68
t159.5 24q97 0 173.5 -29t130 -83.5t82 -131.5t28.5 -173q0 -136 -42 -258t-118.5 -213.5t-183 -145t-234.5 -53.5zM641 1204l191 230h96v-41l-227 -219h-60v30z" />
    <glyph glyph-name="ocircumflex" unicode="&#xf4;" horiz-adv-x="1137" 
d="M489 72q108 0 196 49t149.5 131.5t95 189t33.5 222.5q0 164 -82 249.5t-232 85.5q-106 0 -193.5 -47t-150 -127.5t-97 -187t-34.5 -225.5q0 -170 83 -255t232 -85zM487 -8q-98 0 -175 28.5t-130 82.5t-81.5 132t-28.5 177q0 91 19.5 176t56 159t88 135t116 105t140 68
t159.5 24q97 0 173.5 -29t130 -83.5t82 -131.5t28.5 -173q0 -136 -42 -258t-118.5 -213.5t-183 -145t-234.5 -53.5zM463 1210l238 224h80l139 -224v-36h-61l-127 182l-211 -182h-58v36z" />
    <glyph glyph-name="otilde" unicode="&#xf5;" horiz-adv-x="1137" 
d="M489 72q108 0 196 49t149.5 131.5t95 189t33.5 222.5q0 164 -82 249.5t-232 85.5q-106 0 -193.5 -47t-150 -127.5t-97 -187t-34.5 -225.5q0 -170 83 -255t232 -85zM487 -8q-98 0 -175 28.5t-130 82.5t-81.5 132t-28.5 177q0 91 19.5 176t56 159t88 135t116 105t140 68
t159.5 24q97 0 173.5 -29t130 -83.5t82 -131.5t28.5 -173q0 -136 -42 -258t-118.5 -213.5t-183 -145t-234.5 -53.5zM808 1206q-32 0 -61 13t-55.5 28t-51 28t-47.5 13q-38 0 -57.5 -23t-32.5 -63h-67v37q9 26 23.5 50t34.5 42.5t44.5 29.5t54.5 11q32 0 61 -12.5t56 -27.5
t52 -27.5t49 -12.5q37 0 55 24t31 62h67v-39q-10 -27 -24 -51.5t-33 -42.5t-43.5 -28.5t-55.5 -10.5z" />
    <glyph glyph-name="odieresis" unicode="&#xf6;" horiz-adv-x="1137" 
d="M489 72q108 0 196 49t149.5 131.5t95 189t33.5 222.5q0 164 -82 249.5t-232 85.5q-106 0 -193.5 -47t-150 -127.5t-97 -187t-34.5 -225.5q0 -170 83 -255t232 -85zM487 -8q-98 0 -175 28.5t-130 82.5t-81.5 132t-28.5 177q0 91 19.5 176t56 159t88 135t116 105t140 68
t159.5 24q97 0 173.5 -29t130 -83.5t82 -131.5t28.5 -173q0 -136 -42 -258t-118.5 -213.5t-183 -145t-234.5 -53.5zM551 1231q-29 0 -49.5 20t-20.5 49q0 28 20.5 49t49.5 21t49 -21t20 -49q0 -29 -20 -49t-49 -20zM846 1231q-29 0 -49.5 20t-20.5 49q0 28 20.5 49t49.5 21
t49 -21t20 -49q0 -29 -20 -49t-49 -20z" />
    <glyph glyph-name="divide" unicode="&#xf7;" 
d="M586 326q-34 0 -55 20.5t-21 54.5t24 58t58 24t55 -20.5t21 -54.5q0 -35 -24 -58.5t-58 -23.5zM254 754h819l-20 -92h-820zM715 932q-34 0 -55 21t-21 55t24 58t58 24t55 -21t21 -55t-24 -58t-58 -24z" />
    <glyph glyph-name="oslash" unicode="&#xf8;" horiz-adv-x="1137" 
d="M487 -8q-91 0 -164.5 25t-125.5 73l-129 -139h-74v31l151 163q-73 101 -73 267q0 91 19.5 176t56 159t88 135t116 105t140 68t159.5 24q85 0 154.5 -23t122.5 -67l110 119h74v-29l-133 -143q42 -53 64 -122t22 -152q0 -136 -42 -258t-118.5 -213.5t-183 -145
t-234.5 -53.5zM489 72q108 0 196 49t149.5 131.5t95 189t33.5 222.5q0 61 -12.5 111.5t-35.5 90.5l-659 -710q79 -84 233 -84zM174 412q0 -59 9.5 -108t29.5 -87l655 709q-38 35 -93 54t-126 19q-106 0 -193.5 -47t-150 -127.5t-97 -187t-34.5 -225.5z" />
    <glyph glyph-name="ugrave" unicode="&#xf9;" horiz-adv-x="1112" 
d="M803 0q-44 0 -54.5 28t3.5 87l18 86q-51 -42 -106.5 -80.5t-115 -68t-122.5 -47t-129 -17.5q-59 0 -106.5 19.5t-77.5 59t-38.5 99.5t9.5 141l176 760h55q28 0 35.5 -12t-0.5 -47l-160 -695q-14 -64 -10.5 -109.5t21.5 -75t50 -43t75 -13.5q56 0 113.5 17t116 47
t118 71.5t119.5 89.5l178 770h104l-246 -1067h-26zM505 1393v41h97l127 -230v-30h-64z" />
    <glyph glyph-name="uacute" unicode="&#xfa;" horiz-adv-x="1112" 
d="M803 0q-44 0 -54.5 28t3.5 87l18 86q-51 -42 -106.5 -80.5t-115 -68t-122.5 -47t-129 -17.5q-59 0 -106.5 19.5t-77.5 59t-38.5 99.5t9.5 141l176 760h55q28 0 35.5 -12t-0.5 -47l-160 -695q-14 -64 -10.5 -109.5t21.5 -75t50 -43t75 -13.5q56 0 113.5 17t116 47
t118 71.5t119.5 89.5l178 770h104l-246 -1067h-26zM647 1204l191 230h96v-41l-227 -219h-60v30z" />
    <glyph glyph-name="ucircumflex" unicode="&#xfb;" horiz-adv-x="1112" 
d="M803 0q-44 0 -54.5 28t3.5 87l18 86q-51 -42 -106.5 -80.5t-115 -68t-122.5 -47t-129 -17.5q-59 0 -106.5 19.5t-77.5 59t-38.5 99.5t9.5 141l176 760h55q28 0 35.5 -12t-0.5 -47l-160 -695q-14 -64 -10.5 -109.5t21.5 -75t50 -43t75 -13.5q56 0 113.5 17t116 47
t118 71.5t119.5 89.5l178 770h104l-246 -1067h-26zM465 1210l238 224h80l139 -224v-36h-61l-127 182l-211 -182h-58v36z" />
    <glyph glyph-name="udieresis" unicode="&#xfc;" horiz-adv-x="1112" 
d="M803 0q-44 0 -54.5 28t3.5 87l18 86q-51 -42 -106.5 -80.5t-115 -68t-122.5 -47t-129 -17.5q-59 0 -106.5 19.5t-77.5 59t-38.5 99.5t9.5 141l176 760h55q28 0 35.5 -12t-0.5 -47l-160 -695q-14 -64 -10.5 -109.5t21.5 -75t50 -43t75 -13.5q56 0 113.5 17t116 47
t118 71.5t119.5 89.5l178 770h104l-246 -1067h-26zM553 1231q-29 0 -49.5 20t-20.5 49q0 28 20.5 49t49.5 21t49 -21t20 -49q0 -29 -20 -49t-49 -20zM848 1231q-29 0 -49.5 20t-20.5 49q0 28 20.5 49t49.5 21t49 -21t20 -49q0 -29 -20 -49t-49 -20z" />
    <glyph glyph-name="yacute" unicode="&#xfd;" horiz-adv-x="993" 
d="M74 -293l258 387l-176 938v35h96l158 -860h2l544 860h88v-35l-880 -1364h-90v39zM589 1204l191 230h96v-41l-227 -219h-60v30z" />
    <glyph glyph-name="thorn" unicode="&#xfe;" horiz-adv-x="1139" 
d="M356 1434h52q13 0 21.5 -4t12.5 -14t3 -27.5t-7 -45.5l-110 -481q39 40 86.5 79t102.5 69.5t116.5 49.5t128.5 19q63 0 118 -20t96.5 -63.5t65 -111t23.5 -161.5q0 -96 -18.5 -187.5t-53 -172.5t-85 -149t-114.5 -117.5t-141.5 -77t-165.5 -27.5q-66 0 -117.5 11.5
t-91.5 30.5t-69.5 42.5t-50.5 46.5l-105 -455h-102zM739 995q-67 0 -126 -20t-112.5 -53t-102.5 -75t-95 -87l-127 -551q21 -25 48 -49.5t63 -44t82 -31.5t104 -12q117 0 208 54t153.5 144t94.5 206t32 241q0 75 -17 128t-46.5 86.5t-70 48.5t-88.5 15z" />
    <glyph glyph-name="ydieresis" unicode="&#xff;" horiz-adv-x="993" 
d="M74 -293l258 387l-176 938v35h96l158 -860h2l544 860h88v-35l-880 -1364h-90v39zM482 1231q-29 0 -49.5 20t-20.5 49q0 28 20.5 49t49.5 21t49 -21t20 -49q0 -29 -20 -49t-49 -20zM777 1231q-29 0 -49.5 20t-20.5 49q0 28 20.5 49t49.5 21t49 -21t20 -49q0 -29 -20 -49
t-49 -20z" />
    <glyph glyph-name="dotlessi" unicode="&#x131;" horiz-adv-x="414" 
d="M279 1067h32q19 0 31.5 -3.5t18 -14.5t4.5 -31t-9 -53l-221 -965h-102z" />
    <glyph glyph-name="Lslash" unicode="&#x141;" horiz-adv-x="1112" 
d="M23 565l190 70l184 799h109l-174 -754l536 199l-22 -97l-537 -198l-112 -496h735l-21 -88h-843l122 539l-188 -70z" />
    <glyph glyph-name="lslash" unicode="&#x142;" horiz-adv-x="430" 
d="M68 784l174 95l129 555h51q13 0 22 -4t13 -14t3 -27.5t-7 -45.5l-95 -403l185 98l-25 -94l-180 -96l-195 -848h-102l180 784l-178 -94z" />
    <glyph glyph-name="OE" unicode="&#x152;" horiz-adv-x="1991" 
d="M127 551q0 112 23.5 221.5t69.5 207.5t113.5 181t155 144t194.5 95t232 34h1166l-23 -91h-712l-132 -559h545l-18 -88h-545l-139 -608h758l-21 -88h-1106q-137 0 -242 37.5t-176 109t-107 173.5t-36 231zM240 551q0 -101 25.5 -186t80.5 -146.5t140 -96t204 -34.5h258
l289 1258h-317q-111 0 -205 -31.5t-169.5 -87t-132.5 -131t-95.5 -164t-58 -185.5t-19.5 -196z" />
    <glyph glyph-name="oe" unicode="&#x153;" horiz-adv-x="1896" 
d="M487 -8q-98 0 -175 28.5t-130 82.5t-81.5 132t-28.5 177q0 91 19.5 176t56 159t88 135t116 105t140 68t159.5 24q85 0 153 -22t117 -63.5t79.5 -99.5t41.5 -130q35 70 83.5 128t109 99.5t131.5 64.5t152 23q84 -1 146.5 -24.5t104 -67t62 -105.5t20.5 -139
q0 -51 -9 -105.5t-21 -107.5h-768q-7 -31 -9 -62.5t-2 -61.5q0 -77 18 -138t56 -104t96 -65.5t138 -22.5q61 0 112 9.5t92.5 25.5t74 37.5t57.5 44.5h49l-23 -87q-24 -18 -58.5 -38.5t-81 -37t-104.5 -27.5t-127 -11q-87 0 -152.5 23t-112 64t-74 97.5t-37.5 124.5
q-36 -70 -84.5 -127t-109.5 -97.5t-132 -62.5t-152 -22zM489 72q108 0 196 49t149.5 131.5t95 189t33.5 222.5q0 164 -82 249.5t-232 85.5q-106 0 -193.5 -47t-150 -127.5t-97 -187t-34.5 -225.5q0 -170 83 -255t232 -85zM1513 1001q-82 0 -153 -30.5t-128 -83.5
t-98.5 -124.5t-64.5 -154.5h670q9 35 13.5 69.5t4.5 65.5q0 132 -63 195t-181 63z" />
    <glyph glyph-name="Scaron" unicode="&#x160;" horiz-adv-x="1065" 
d="M461 -8q-72 0 -139 12t-127 33.5t-111.5 52.5t-91.5 70l20 88h49q69 -82 173 -125t229 -43q83 0 152.5 21.5t120 65.5t78.5 110t28 155q0 58 -22 98.5t-62 70.5t-94.5 53t-118.5 46q-75 27 -137 55t-105.5 66.5t-67.5 91t-24 129.5q0 89 33.5 163t94 126.5t144.5 81.5
t185 29q125 0 222 -37t175 -115l-18 -80h-50q-62 72 -143 108t-190 36q-72 0 -136 -20t-112 -58.5t-75.5 -95t-27.5 -129.5q0 -62 22.5 -102.5t61.5 -69.5t91.5 -50t113.5 -43q73 -26 136.5 -55t110 -68.5t73 -93.5t26.5 -129q0 -113 -36.5 -197t-101.5 -140t-154 -83.5
t-195 -27.5zM952 1669l-219 -188h-78l-143 188v37h61l129 -143l193 143h57v-37z" />
    <glyph glyph-name="scaron" unicode="&#x161;" horiz-adv-x="829" 
d="M307 -8q-64 0 -117 11t-95.5 28t-74.5 38.5t-53 41.5l19 75h47q16 -17 41.5 -37t59.5 -37t77.5 -28.5t95.5 -11.5q80 0 137.5 18.5t94 51t54 77t17.5 96.5q0 40 -13.5 69t-40.5 51t-67 39t-92 34q-62 20 -111.5 41.5t-85 51.5t-54.5 70.5t-19 98.5q0 68 25 125t72.5 98
t117.5 63.5t160 22.5q56 0 103 -8.5t85 -22t66.5 -30.5t46.5 -35l-19 -78h-43q-18 19 -40 36t-51.5 30t-66.5 20.5t-85 7.5q-68 0 -119 -16t-85.5 -45t-51.5 -69.5t-17 -88.5q0 -39 13.5 -67t40.5 -49t67 -37.5t92 -32.5q61 -19 111.5 -40.5t86.5 -51.5t55.5 -71.5
t19.5 -100.5q0 -71 -24.5 -132.5t-74.5 -107.5t-126 -72t-179 -26zM365 1397v37h62l127 -183l211 183h57v-37l-238 -223h-79z" />
    <glyph glyph-name="Ydieresis" unicode="&#x178;" horiz-adv-x="1130" 
d="M541 604l-281 787v43h98l260 -732h3l567 732h86v-43l-625 -795l-137 -596h-111zM643 1501q-29 0 -49.5 20t-20.5 49q0 28 20.5 49t49.5 21t49 -21t20 -49q0 -29 -20 -49t-49 -20zM938 1501q-29 0 -49.5 20t-20.5 49q0 28 20.5 49t49.5 21t49 -21t20 -49q0 -29 -20 -49
t-49 -20z" />
    <glyph glyph-name="Zcaron" unicode="&#x17d;" horiz-adv-x="1192" 
d="M0 92l1151 1249v5h-809l20 88h938l-22 -97l-1151 -1247v-4h840l-19 -86h-971zM1077 1669l-219 -188h-78l-143 188v37h61l129 -143l193 143h57v-37z" />
    <glyph glyph-name="zcaron" unicode="&#x17e;" horiz-adv-x="936" 
d="M-35 80l885 907h-631l19 80h755l-18 -80l-887 -907h664l-17 -80h-786zM440 1397v37h62l127 -183l211 183h57v-37l-238 -223h-79z" />
    <glyph glyph-name="florin" unicode="&#x192;" 
d="M377 874h198l70 300q19 81 49.5 132.5t72.5 81t95 41t117 11.5q18 0 37 -1.5t37 -3.5t33 -5.5t24 -6.5l-16 -67h-101q-50 0 -89 -7t-68 -27t-50 -57t-34 -98l-68 -293h274l-20 -81h-272l-224 -965h-106l221 965h-201z" />
    <glyph glyph-name="circumflex" unicode="&#x2c6;" horiz-adv-x="844" 
d="M352 1210l238 224h80l139 -224v-36h-61l-127 182l-211 -182h-58v36z" />
    <glyph glyph-name="caron" unicode="&#x2c7;" horiz-adv-x="844" 
d="M397 1397v37h62l127 -183l211 183h57v-37l-238 -223h-79z" />
    <glyph glyph-name="breve" unicode="&#x2d8;" horiz-adv-x="844" 
d="M590 1178q-48 0 -86.5 14.5t-65.5 40t-42.5 60t-18.5 75.5v39h80q-5 -71 31 -109t104 -38q69 0 115 38t63 109h74v-39q-13 -40 -36.5 -74.5t-56 -60t-73 -40.5t-88.5 -15z" />
    <glyph glyph-name="dotaccent" unicode="&#x2d9;" horiz-adv-x="844" 
d="M602 1231q-29 0 -49.5 20t-20.5 49q0 28 20.5 49t49.5 21t49.5 -21t20.5 -49q0 -29 -20.5 -49t-49.5 -20z" />
    <glyph glyph-name="ring" unicode="&#x2da;" horiz-adv-x="844" 
d="M604 1241q22 0 42.5 8.5t36.5 24t25 37t9 47.5q0 43 -28.5 72.5t-72.5 29.5q-48 0 -79 -32.5t-31 -86.5q0 -48 28 -74t70 -26zM604 1176q-35 0 -66 10.5t-54.5 31.5t-37.5 51.5t-14 71.5q0 42 15.5 76t41.5 58t59.5 37.5t69.5 13.5q35 0 66.5 -12t55 -34t37.5 -53.5
t14 -70.5q0 -42 -16.5 -75.5t-43 -57t-60 -35.5t-67.5 -12z" />
    <glyph glyph-name="ogonek" unicode="&#x2db;" horiz-adv-x="819" 
d="M283 -336q-38 0 -67.5 10t-50 27.5t-31.5 41t-11 50.5q0 39 16 71t42 57.5t58.5 44.5t65.5 34h101q-28 -15 -60.5 -35t-60.5 -43.5t-47 -51t-19 -58.5q0 -34 20.5 -54t71.5 -20h64l-15 -62q-36 -12 -77 -12z" />
    <glyph glyph-name="tilde" unicode="&#x2dc;" horiz-adv-x="844" 
d="M702 1206q-32 0 -61 13t-55.5 28t-51 28t-47.5 13q-38 0 -57.5 -23t-32.5 -63h-67v37q9 26 23.5 50t34.5 42.5t44.5 29.5t54.5 11q32 0 61 -12.5t56 -27.5t52 -27.5t49 -12.5q37 0 55 24t31 62h67v-39q-10 -27 -24 -51.5t-33 -42.5t-43.5 -28.5t-55.5 -10.5z" />
    <glyph glyph-name="hungarumlaut" unicode="&#x2dd;" horiz-adv-x="844" 
d="M432 1200l146 234h84v-39l-168 -221h-62v26zM674 1200l145 234h84v-39l-168 -221h-61v26z" />
    <glyph glyph-name="endash" unicode="&#x2013;" horiz-adv-x="805" 
d="M78 631h694l-20 -82h-693z" />
    <glyph glyph-name="emdash" unicode="&#x2014;" horiz-adv-x="1348" 
d="M78 631h1237l-21 -82h-1235z" />
    <glyph glyph-name="quoteleft" unicode="&#x2018;" horiz-adv-x="297" 
d="M287 1124q-29 0 -52.5 22.5t-23.5 70.5q0 45 18 83.5t48 67.5t69.5 48.5t83.5 25.5l-14 -64q-18 -4 -36.5 -11t-32.5 -18t-23 -26t-9 -33q0 -14 5 -20.5t14 -16.5q11 -11 19.5 -22t8.5 -31q0 -34 -23 -55t-52 -21z" />
    <glyph glyph-name="quoteright" unicode="&#x2019;" horiz-adv-x="297" 
d="M205 1188q18 4 36 11t32.5 18t23 26t8.5 33q0 14 -4.5 20.5t-13.5 16.5q-11 11 -20 22t-9 31q0 34 23.5 55t52.5 21t52.5 -22t23.5 -70q0 -45 -18 -84t-48 -68t-70 -48.5t-84 -25.5z" />
    <glyph glyph-name="quotesinglbase" unicode="&#x201a;" horiz-adv-x="297" 
d="M-72 -88q18 4 36.5 11t32.5 18t23 26t9 33q0 14 -4.5 21t-14.5 16q-11 11 -19.5 22t-8.5 31q0 34 23 55t52 21t52.5 -22t23.5 -70q0 -45 -18 -84t-48 -68t-69.5 -48.5t-83.5 -25.5z" />
    <glyph glyph-name="quotedblleft" unicode="&#x201c;" horiz-adv-x="535" 
d="M287 1124q-29 0 -52.5 22.5t-23.5 70.5q0 45 18 83.5t48 67.5t69.5 48.5t83.5 25.5l-14 -64q-18 -4 -36.5 -11t-32.5 -18t-23 -26t-9 -33q0 -14 5 -20.5t14 -16.5q11 -11 19.5 -22t8.5 -31q0 -34 -23 -55t-52 -21zM524 1124q-29 0 -52 22.5t-23 70.5q0 45 18 83.5
t48 67.5t69.5 48.5t83.5 25.5l-15 -64q-18 -4 -36 -11t-32.5 -18t-23 -26t-8.5 -33q0 -14 4.5 -20.5t13.5 -16.5q11 -11 20 -22t9 -31q0 -34 -23.5 -55t-52.5 -21z" />
    <glyph glyph-name="quotedblright" unicode="&#x201d;" horiz-adv-x="535" 
d="M205 1188q18 4 36 11t32.5 18t23 26t8.5 33q0 14 -4.5 20.5t-13.5 16.5q-11 11 -20 22t-9 31q0 34 23.5 55t52.5 21t52.5 -22t23.5 -70q0 -45 -18 -84t-48 -68t-70 -48.5t-84 -25.5zM442 1188q19 4 37 11t32 18t23 26t9 33q0 14 -4.5 20.5t-14.5 16.5q-11 11 -19.5 22
t-8.5 31q0 34 23 55t52 21t52.5 -22t23.5 -70q0 -45 -18 -84t-48 -68t-69.5 -48.5t-83.5 -25.5z" />
    <glyph glyph-name="quotedblbase" unicode="&#x201e;" horiz-adv-x="535" 
d="M-72 -88q18 4 36.5 11t32.5 18t23 26t9 33q0 14 -4.5 21t-14.5 16q-11 11 -19.5 22t-8.5 31q0 34 23 55t52 21t52.5 -22t23.5 -70q0 -45 -18 -84t-48 -68t-69.5 -48.5t-83.5 -25.5zM166 -88q18 4 36 11t32.5 18t23 26t8.5 33q0 14 -4.5 21t-13.5 16q-11 11 -20 22t-9 31
q0 34 23.5 55t52.5 21t52.5 -22t23.5 -70q0 -45 -18 -84t-48 -68t-70 -48.5t-83 -25.5z" />
    <glyph glyph-name="dagger" unicode="&#x2020;" horiz-adv-x="879" 
d="M399 592l35 151l68 207l-221 -20h-117l22 98h111l221 -18l21 182l55 242h106l-57 -248l-59 -176l223 18h117l-23 -98h-113l-219 20l-26 -211l-35 -151l-174 -688h-78z" />
    <glyph glyph-name="daggerdbl" unicode="&#x2021;" horiz-adv-x="879" 
d="M295 135l59 176l-223 -18h-117l23 98h113l219 -20l28 223l35 151l74 218l-221 -21h-117l22 98h111l221 -18l21 182l51 230h106l-53 -236l-59 -176l223 18h117l-23 -98h-112l-220 21l-28 -224l-35 -151l-74 -217l221 20h117l-22 -98h-111l-221 18l-21 -182l-51 -229h-106z
" />
    <glyph glyph-name="bullet" unicode="&#x2022;" horiz-adv-x="594" 
d="M291 379q-46 0 -85.5 14t-69 40.5t-46 64.5t-16.5 86q0 60 22.5 110t60 85.5t86.5 55t103 19.5q45 0 84 -14.5t67 -41t44 -64.5t16 -85q0 -62 -21 -111.5t-57 -85t-84.5 -54.5t-103.5 -19z" />
    <glyph glyph-name="ellipsis" unicode="&#x2026;" horiz-adv-x="952" 
d="M49 -8q-34 0 -55 21t-21 55t24 58t58 24t55 -21t21 -55t-24 -58t-58 -24zM379 -8q-34 0 -55 21t-21 55t24 58t58 24t55 -21t21 -55t-24 -58t-58 -24zM709 -8q-34 0 -55 21t-21 55t24 58t58 24t55 -21t21 -55t-24 -58t-58 -24z" />
    <glyph glyph-name="perthousand" unicode="&#x2030;" horiz-adv-x="2458" 
d="M518 805q58 0 108.5 28.5t87.5 77.5t58 115t21 141q0 44 -11.5 81t-34 63.5t-56 41.5t-77.5 15q-58 0 -108 -29t-87 -78.5t-58 -115.5t-21 -141q0 -45 12 -81.5t35 -62.5t56 -40.5t75 -14.5zM514 731q-62 0 -111.5 19.5t-84 55.5t-53.5 87t-19 115q0 90 30 169t81 138
t118.5 93t142.5 34q62 0 112 -19.5t85 -55.5t53.5 -88t18.5 -116q0 -89 -29.5 -167.5t-80 -137.5t-118.5 -93t-145 -34zM1511 1493h103l-1286 -1563h-103zM1225 66q58 0 108 28.5t87 77.5t58 115t21 141q0 44 -11.5 81t-34 63.5t-55.5 41.5t-77 15q-59 0 -109 -29
t-86.5 -78.5t-57.5 -116t-21 -141.5q0 -45 12 -81.5t34.5 -62.5t56 -40t75.5 -14zM1221 -8q-62 0 -111.5 19t-84.5 55t-54 87t-19 115q0 90 30 169t81 138t119 93t143 34q62 0 112 -19.5t84.5 -55.5t53 -87.5t18.5 -115.5q0 -89 -29.5 -168t-80 -137.5t-118.5 -92.5
t-144 -34zM1987 66q58 0 108 28.5t87 77.5t58 115t21 141q0 44 -11.5 81t-34 63.5t-55.5 41.5t-77 15q-59 0 -109 -29t-87 -78.5t-58 -116t-21 -141.5q0 -45 12 -81.5t35 -62.5t56.5 -40t75.5 -14zM1982 -8q-61 0 -110.5 19t-84.5 55t-54 87t-19 115q0 90 30 169t81 138
t119 93t143 34q62 0 112 -19.5t84.5 -55.5t53 -87.5t18.5 -115.5q0 -89 -29.5 -168t-80 -137.5t-118.5 -92.5t-145 -34z" />
    <glyph glyph-name="guilsinglleft" unicode="&#x2039;" horiz-adv-x="565" 
d="M74 514l10 49l410 406h81v-39l-399 -400v-6l223 -389v-37h-84z" />
    <glyph glyph-name="guilsinglright" unicode="&#x203a;" horiz-adv-x="565" 
d="M-8 137l397 400v6l-221 389v37h82l242 -416l-11 -49l-409 -406h-80v39z" />
    <glyph glyph-name="fraction" unicode="&#x2044;" horiz-adv-x="379" 
d="M821 1493h103l-1286 -1563h-103z" />
    <glyph glyph-name="Euro" unicode="&#x20ac;" 
d="M131 877h145q39 117 101 219.5t147 179.5t192.5 121.5t237.5 44.5q64 0 113 -8.5t88 -23t70.5 -34.5t60.5 -43l-18 -84h-54q-23 25 -49 44.5t-58 33t-71.5 20.5t-89.5 7q-104 0 -191 -36.5t-157.5 -100.5t-123.5 -151.5t-87 -188.5h516l-33 -82h-505q-20 -72 -29 -146
h481l-31 -80h-456q-2 -18 -2 -36v-35q0 -98 20.5 -175.5t64 -131.5t112 -82.5t165.5 -28.5q64 0 114.5 10.5t91.5 28.5t74.5 42t63.5 50h47l-18 -92q-31 -26 -68.5 -49t-84.5 -40t-103.5 -27.5t-124.5 -10.5q-111 0 -197 34t-145 99t-90 159t-31 214v35t2 36h-160l19 80h147
q5 37 12 72.5t15 73.5h-141z" />
    <glyph glyph-name="trademark" unicode="&#x2122;" horiz-adv-x="1264" 
d="M795 1434h135l51 -422h2l246 422h145l-129 -562h-90l111 478h-2l-281 -478h-68l-57 478h-2l-111 -478h-79zM410 1360h-174l16 74h444l-16 -74h-176l-113 -488h-94z" />
    <glyph glyph-name="minus" unicode="&#x2212;" 
d="M254 754h819l-20 -92h-820z" />
    <glyph glyph-name="fi" unicode="&#xfb01;" horiz-adv-x="991" 
d="M287 989h-140l19 78h139l27 121q16 69 43.5 117t65 78t84 43.5t100.5 13.5q43 0 77 -4.5t54 -12.5l-15 -67h-98q-38 0 -71 -8t-59 -27.5t-45.5 -52t-31.5 -82.5l-26 -119h249l-18 -78h-252l-225 -989h-103zM848 1067h33q19 0 31.5 -3.5t18 -14.5t4 -31t-8.5 -53
l-221 -965h-103zM952 1231q-29 0 -49 20t-20 49q0 28 20 49t49 21t49.5 -21t20.5 -49q0 -29 -20.5 -49t-49.5 -20z" />
    <glyph glyph-name="fl" unicode="&#xfb02;" horiz-adv-x="989" 
d="M287 989h-140l19 78h139l27 121q16 69 43.5 117t65 78t84 43.5t100.5 13.5q43 0 69.5 -3t46.5 -10l-16 -71h-82q-38 0 -71 -8t-59 -27.5t-45.5 -52t-31.5 -82.5l-26 -119h249l-18 -78h-252l-225 -989h-103zM934 1434h51q13 0 22 -4t13 -14t3 -27.5t-7 -45.5l-309 -1343
h-103z" />
    <glyph glyph-name="grave.cap" horiz-adv-x="844" 
d="M633 1481l-137 182v41h96l104 -193v-30h-63z" />
    <glyph glyph-name="dieresis.cap" horiz-adv-x="844" 
d="M492 1501q-29 0 -49.5 20t-20.5 49q0 28 20.5 49t49.5 21t49 -21t20 -49q0 -29 -20 -49t-49 -20zM787 1501q-29 0 -49.5 20t-20.5 49q0 28 20.5 49t49.5 21t49 -21t20 -49q0 -29 -20 -49t-49 -20z" />
    <glyph glyph-name="macron.cap" horiz-adv-x="844" 
d="M442 1616h465l-18 -80h-465z" />
    <glyph glyph-name="acute.cap" horiz-adv-x="844" 
d="M602 1511l158 193h96v-41l-194 -182h-60v30z" />
    <glyph glyph-name="circumflex.cap" horiz-adv-x="844" 
d="M424 1518l219 188h78l143 -188v-37h-61l-129 143l-193 -143h-57v37z" />
    <glyph glyph-name="caron.cap" horiz-adv-x="844" 
d="M909 1669l-219 -188h-78l-143 188v37h61l129 -143l193 143h57v-37z" />
    <glyph glyph-name="breve.cap" horiz-adv-x="844" 
d="M666 1485q-50 0 -88 14t-64 37.5t-40.5 54.5t-18.5 66v41h77q-2 -63 34.5 -96t105.5 -33q71 0 113 32t59 97h71v-41q-14 -37 -36 -68.5t-53 -54.5t-71 -36t-89 -13z" />
    <glyph glyph-name="dotaccent.cap" horiz-adv-x="844" 
d="M663 1503q-29 0 -49.5 20t-20.5 49q0 28 20.5 49t49.5 21t49.5 -21t20.5 -49q0 -29 -20.5 -49t-49.5 -20z" />
    <glyph glyph-name="ring.cap" horiz-adv-x="844" 
d="M674 1554q22 0 42.5 8.5t36.5 24t25 37t9 47.5q0 43 -28.5 72.5t-72.5 29.5q-48 0 -79 -32.5t-31 -86.5q0 -48 28 -74t70 -26zM674 1489q-35 0 -66 10.5t-54.5 31.5t-37.5 51.5t-14 71.5q0 42 15.5 76t41.5 58t59.5 37.5t69.5 13.5q35 0 66.5 -12t55 -34t37.5 -53.5
t14 -70.5q0 -42 -16.5 -75.5t-43 -57t-60 -35.5t-67.5 -12z" />
    <glyph glyph-name="tilde.cap" horiz-adv-x="844" 
d="M776 1503q-32 0 -61 13t-55.5 28t-51 28t-47.5 13q-38 0 -57.5 -23t-32.5 -63h-67v37q9 26 23.5 50t34.5 42.5t44.5 29.5t54.5 11q32 0 61 -12.5t56 -27.5t52 -27.5t49 -12.5q37 0 55 24t31 62h67v-39q-10 -27 -24 -51.5t-33 -42.5t-43.5 -28.5t-55.5 -10.5z" />
    <glyph glyph-name="hungarumlaut.cap" horiz-adv-x="844" 
d="M500 1507l123 197h84v-39l-146 -184h-61v26zM741 1507l123 197h84v-39l-145 -184h-62v26z" />
    </font>
</defs>
</svg>
